<?xml version="1.0" encoding="utf-8"?>
<!-- Generator: Adobe Illustrator 23.0.3, SVG Export Plug-In . SVG Version: 6.00 Build 0)  -->
<svg version="1.1" id="Layer_1" xmlns="http://www.w3.org/2000/svg" xmlns:xlink="http://www.w3.org/1999/xlink" x="0px" y="0px"
	 viewBox="0 0 400 300" style="enable-background:new 0 0 400 300;" xml:space="preserve">
<style type="text/css">
	.st0{fill:#F5F7F9;}
	.st1{display:none;}
	.st2{display:inline;}
	.st3{fill:#F5F5F5;}
	.st4{fill:#E0E0E0;}
	.st5{fill:#EBEBEB;}
	.st6{fill:#FAFAFA;}
	.st7{fill:#263238;}
	.st8{opacity:0.3;enable-background:new    ;}
	.st9{fill:#135A70;}
	.st10{fill:#FFFFFF;}
	.st11{fill:#455A64;}
	.st12{fill:#FFBF9D;}
	.st13{fill:#FF9A6C;}
	.st14{opacity:0.3;}
	.st15{opacity:0.2;}
	.st16{fill:#F0F0F0;}
	.st17{fill:#E6E6E6;}
	.st18{opacity:0.5;}
	.st19{opacity:0.3;fill:#FFFFFF;enable-background:new    ;}
	.st20{opacity:0.2;enable-background:new    ;}
	.st21{opacity:0.4;fill:#FFFFFF;enable-background:new    ;}
	.st22{opacity:0.2;fill:#FFFFFF;enable-background:new    ;}
	.st23{opacity:0.4;}
	.st24{fill:#FFC3BD;}
	.st25{opacity:0.1;enable-background:new    ;}
	.st26{fill:#BA4D3C;}
	.st27{opacity:0.5;fill:#FFFFFF;enable-background:new    ;}
</style>
<rect x="-15.8" y="-5.6" class="st0" width="431.6" height="311.2"/>
<g class="st1">
	<g id="freepik--background-complete--inject-3" class="st2">
		
			<rect x="69" y="175.5" transform="matrix(0.9829 -0.184 0.184 0.9829 -33.8073 19.7935)" class="st3" width="41.5" height="33.2"/>
		<path class="st4" d="M107.1,172l-0.2,0l-0.6,0.1l-2.2,0.4l-8.3,1.6l-29.4,5.6l0.1-0.2c1.8,9.7,3.9,20.8,6.1,32.6l0,0l-0.2-0.1
			l40.7-7.6l-0.1,0.2c-1.8-9.8-3.3-17.9-4.4-23.6c-0.5-2.8-0.9-5.1-1.2-6.6c-0.1-0.8-0.2-1.3-0.3-1.7
			C107.1,172.2,107.1,172,107.1,172c0,0,0,0.2,0.1,0.6l0.3,1.7c0.3,1.5,0.7,3.8,1.3,6.6c1.1,5.7,2.6,13.9,4.5,23.7l0,0.1l-0.1,0
			l-40.8,7.6l-0.2,0l0-0.2l0,0c-2.2-11.8-4.3-22.9-6.1-32.6v-0.1l0.1,0l29.5-5.5l8.3-1.5l2.2-0.4l0.6-0.1L107.1,172z"/>
		
			<rect x="70.5" y="177.6" transform="matrix(0.9829 -0.184 0.184 0.9829 -33.8083 19.7882)" class="st5" width="38.6" height="29"/>
		<polygon class="st4" points="73.5,209.9 83.4,189.7 93.6,199.3 98.1,192.3 111.4,202.8 		"/>
		<path class="st4" d="M94.7,185.4c0.3,1.6-0.8,3.2-2.4,3.5c-1.6,0.3-3.2-0.8-3.5-2.4c-0.3-1.6,0.8-3.2,2.4-3.5
			C92.8,182.6,94.3,183.7,94.7,185.4C94.7,185.4,94.7,185.4,94.7,185.4z"/>
		
			<rect x="141.9" y="57.4" transform="matrix(0.1781 -0.984 0.984 0.1781 65.5281 280.1135)" class="st6" width="117.2" height="86.8"/>
		<path class="st4" d="M232.7,166.2c0,0,0-0.2,0.1-0.6l0.3-1.6c0.3-1.4,0.6-3.5,1.1-6.3c1-5.5,2.4-13.5,4.2-23.7l15-83.2l0.1,0.2
			l-85.4-15.4l0,0l0.2-0.1c-7.8,43-15,82.9-20.9,115.3l-0.1-0.1l62,11.3l17.2,3.2l4.5,0.8C232.2,166.1,232.7,166.2,232.7,166.2
			l-1.5-0.3l-4.5-0.8l-17.2-3.1l-62.1-11.2h-0.1v-0.1c5.9-32.5,13.1-72.3,20.9-115.3v-0.2h0.2l0,0l85.4,15.5l0.1,0v0.1
			c-6.2,34.2-11.5,63-15.2,83.3l-4.3,23.6c-0.5,2.7-0.9,4.8-1.2,6.2c-0.1,0.7-0.2,1.2-0.3,1.6L232.7,166.2z"/>
		
			<rect x="174.6" y="48.3" transform="matrix(0.1781 -0.984 0.984 0.1781 91.0755 242.4489)" class="st4" width="32.1" height="36.8"/>
		
			<rect x="226.5" y="47.6" transform="matrix(0.1781 -0.984 0.984 0.1781 129.4383 273.7484)" class="st4" width="4.2" height="23.6"/>
		
			<rect x="199.6" y="60.1" transform="matrix(0.1781 -0.984 0.984 0.1781 73.5095 275.5832)" class="st4" width="4.2" height="67.3"/>
		
			<rect x="198.3" y="67.4" transform="matrix(0.1781 -0.984 0.984 0.1781 65.297 280.2586)" class="st4" width="4.2" height="67.3"/>
		<rect x="197" y="74.6" transform="matrix(0.1781 -0.984 0.984 0.1781 57.0803 284.9293)" class="st4" width="4.2" height="67.3"/>
		
			<rect x="195.7" y="81.9" transform="matrix(0.1781 -0.984 0.984 0.1781 48.859 289.5922)" class="st4" width="4.2" height="67.3"/>
		
			<rect x="194.4" y="89.1" transform="matrix(0.1781 -0.984 0.984 0.1781 40.6482 294.2579)" class="st4" width="4.2" height="67.3"/>
		
			<rect x="189.9" y="114" transform="matrix(0.1781 -0.984 0.984 0.1781 12.4748 310.2707)" class="st4" width="4.2" height="67.3"/>
		
			<rect x="178.1" y="108.9" transform="matrix(0.1781 -0.984 0.984 0.1781 22.8152 282.0139)" class="st4" width="4.2" height="37"/>
		
			<rect x="225.3" y="54.3" transform="matrix(0.1781 -0.984 0.984 0.1781 121.8836 278.0462)" class="st4" width="4.2" height="23.6"/>
		
			<rect x="223.3" y="61" transform="matrix(0.1807 -0.9835 0.9835 0.1807 113.0489 281.2738)" class="st4" width="4.2" height="23.5"/>
		
			<rect x="218.4" y="71.3" transform="matrix(0.1781 -0.984 0.984 0.1781 103.9157 281.5867)" class="st4" width="4.2" height="14.5"/>
		
			<rect x="255.2" y="83.3" transform="matrix(0.9485 -0.3168 0.3168 0.9485 -16.8447 91.4833)" class="st3" width="35.5" height="28.4"/>
		
			<rect x="256.4" y="85.1" transform="matrix(0.9485 -0.3168 0.3168 0.9485 -16.848 91.4739)" class="st5" width="33" height="24.8"/>
		<polygon class="st4" points="261.2,114.6 267.2,96.3 277,103.2 280,96.7 292.5,104.1 		"/>
		<path class="st4" d="M276.3,91.3c0.5,1.4-0.3,2.8-1.6,3.3c-1.4,0.5-2.8-0.3-3.3-1.6c-0.5-1.4,0.3-2.8,1.6-3.3c0,0,0,0,0,0
			C274.3,89.2,275.8,89.9,276.3,91.3C276.3,91.3,276.3,91.3,276.3,91.3z"/>
		
			<rect x="286.9" y="46.5" transform="matrix(0.1922 -0.9814 0.9814 0.1922 177.1464 361.8864)" class="st3" width="42.9" height="53.7"/>
		<path class="st4" d="M338.8,57.5l-0.3,0l-0.7-0.1l-2.9-0.5l-10.8-2.1l-38-7.4l0.2-0.1c-2.5,12.5-5.3,26.9-8.2,42.1l0,0l-0.1-0.2
			l52.6,10.3l-0.2,0.1c2.5-12.7,4.6-23.2,6-30.5c0.7-3.7,1.3-6.6,1.7-8.5c0.2-1,0.3-1.7,0.5-2.3C338.8,57.7,338.8,57.5,338.8,57.5
			s0,0.3-0.1,0.8c-0.1,0.5-0.2,1.3-0.4,2.2c-0.4,2-0.9,4.8-1.6,8.5c-1.4,7.4-3.5,17.9-5.9,30.6l0,0.1h-0.1l-52.7-10.3l-0.2,0l0-0.2
			l0,0c3-15.2,5.8-29.6,8.3-42.1l0-0.1l0.1,0l38.1,7.5l10.7,2.1l2.8,0.6l0.7,0.1L338.8,57.5z"/>
		
			<rect x="289.6" y="48.4" transform="matrix(0.1922 -0.9814 0.9814 0.1922 177.1311 361.8532)" class="st5" width="37.5" height="49.9"/>
		<polygon class="st4" points="280.3,86.9 301.9,67.4 309.6,83.8 318.3,77.6 329.2,96.5 		"/>
		<path class="st4" d="M317.5,67.6c-0.4,2.1-2.5,3.5-4.6,3.1c-2.1-0.4-3.5-2.5-3.1-4.6c0.4-2.1,2.5-3.5,4.6-3.1c0,0,0,0,0,0
			C316.5,63.4,317.9,65.4,317.5,67.6C317.5,67.6,317.5,67.6,317.5,67.6z"/>
		<polygon class="st3" points="83.6,23.8 86.3,55.5 98.6,58.9 122.5,56.1 119.2,20.4 		"/>
		<path class="st5" d="M90.1,52.7l-3.8,2.9c1.4,1.2,3.1,2.2,4.9,2.7c2.4,0.7,4.9,0.9,7.4,0.6C98.6,58.9,92.9,57.9,90.1,52.7z"/>
		<path class="st4" d="M116.3,32.1c0,0.1-6,0.7-13.5,1.4c-7.5,0.7-13.5,1.3-13.5,1.2c0-0.1,6-0.7,13.5-1.4
			C110.2,32.6,116.3,32,116.3,32.1z"/>
		<path class="st4" d="M116.6,36.9c0,0.1-6,0.7-13.5,1.4c-7.5,0.7-13.5,1.3-13.5,1.2c0-0.1,6-0.7,13.5-1.4
			C110.6,37.4,116.6,36.9,116.6,36.9z"/>
		<path class="st4" d="M117.2,41.2c0,0.1-6,0.7-13.5,1.4c-7.5,0.7-13.5,1.3-13.5,1.2c0-0.1,6-0.7,13.5-1.4
			C111.1,41.7,117.2,41.2,117.2,41.2z"/>
		<path class="st4" d="M117.6,45.4c0,0.1-6,0.7-13.5,1.4c-7.5,0.7-13.5,1.3-13.5,1.2c0-0.1,6-0.7,13.5-1.4
			C111.5,45.9,117.6,45.3,117.6,45.4z"/>
	</g>
	<g id="freepik--Floor--inject-3" class="st2">
		<path class="st7" d="M341,279.5c0,0.1-63.2,0.2-141,0.2S59,279.6,59,279.5c0-0.1,63.1-0.2,141.1-0.2S341,279.4,341,279.5z"/>
	</g>
	<g id="freepik--Thesis--inject-3" class="st2">
		<polygon class="st4" points="75.9,79 101.2,223.7 207.7,206.9 212.7,195 183.8,61.3 84,67.2 		"/>
		<polygon class="st8" points="101.2,223.7 108.8,212.1 83.5,67.4 75.9,79 		"/>
		<polygon class="st6" points="83.5,67.4 108.8,212.1 212.7,195 186.4,52.7 		"/>
		<path class="st7" d="M83.5,67.4l102.9-14.8h0.1v0.1c7.4,39.7,16.5,89,26.3,142.2l0,0.2l-0.2,0l-1.7,0.3l-102.2,16.8h-0.1v-0.1
			C93.8,126.7,83.7,68.7,83.5,67.4c0.2,1.3,10.4,59.2,25.4,144.6l-0.2-0.1l102.2-16.8l1.7-0.3l-0.1,0.2
			c-9.8-53.3-18.9-102.5-26.2-142.3l0.1,0.1L83.5,67.4z"/>
		<circle class="st9" cx="149.2" cy="133.6" r="17.7"/>
		<path class="st10" d="M141.1,138.2l-0.8-5.1l17.7-2.8l0.8,4.8c0,0-1.1,4.1-8.2,5.2C143.4,141.5,141.1,138.2,141.1,138.2z"/>
		<polygon class="st10" points="137.5,133.2 150.1,135.4 161.1,129.3 148.4,127.3 		"/>
		<path class="st4" d="M110.2,93.6l62.6-9.9c0.8-0.1,1.5,0.4,1.6,1.2l0.2,1.3c0.1,0.8-0.4,1.5-1.2,1.6l-62.6,9.9
			c-0.8,0.1-1.5-0.4-1.6-1.2l-0.2-1.3C108.9,94.4,109.4,93.7,110.2,93.6z"/>
		<path class="st4" d="M123.2,100.4l39.7-6.3c0.8-0.1,1.5,0.4,1.6,1.2l0.2,1.3c0.1,0.8-0.4,1.5-1.2,1.6l-39.7,6.3
			c-0.8,0.1-1.5-0.4-1.6-1.2L122,102C121.9,101.2,122.4,100.5,123.2,100.4z"/>
		<path class="st4" d="M137.5,189.1l39.7-6.3c0.8-0.1,1.5,0.4,1.6,1.2l0.2,1.3c0.1,0.8-0.4,1.5-1.2,1.6l-39.7,6.3
			c-0.8,0.1-1.5-0.4-1.6-1.2l-0.2-1.3C136.2,190,136.7,189.3,137.5,189.1z"/>
		<path class="st7" d="M207.3,199l-0.5,0.1l-1.5,0.3l-5.7,1l-21.3,3.5l-72.1,11.7l-0.2,0v-0.2c-1-5.7-2.1-11.7-3.1-17.8
			c-5.8-32.8-11-62.5-14.8-84c-1.9-10.7-3.4-19.4-4.4-25.5c-0.5-3-0.9-5.3-1.2-6.9c-0.1-0.8-0.2-1.4-0.3-1.8C82,79,82,78.8,82,78.8
			s0,0.2,0.1,0.6c0.1,0.4,0.2,1,0.3,1.8c0.3,1.6,0.7,3.9,1.3,6.9c1.1,6,2.6,14.7,4.5,25.4c3.8,21.5,9.1,51.2,14.9,84
			c1.1,6.1,2.1,12.1,3.1,17.8l-0.2-0.1l72.1-11.6l21.3-3.4l5.8-0.9l1.5-0.2L207.3,199z"/>
		<path class="st7" d="M199.4,204.5l-0.5,0.1l-1.4,0.2l-5.4,0.9l-20.2,3.4l-68.5,11.3h-0.2v-0.1l-3.9-21.4
			c-5.9-32.4-11.2-61.6-15-82.8c-1.9-10.6-3.5-19.2-4.5-25.1c-0.5-3-0.9-5.3-1.2-6.8c-0.1-0.8-0.2-1.4-0.3-1.8
			c-0.1-0.4-0.1-0.6-0.1-0.6s0,0.2,0.1,0.6l0.3,1.8c0.3,1.6,0.7,3.9,1.3,6.8l4.6,25.1c3.9,21.2,9.2,50.5,15.1,82.8
			c1.3,7.3,2.6,14.5,3.9,21.4l-0.2-0.1l68.5-11.2l20.2-3.3l5.4-0.9l1.4-0.2L199.4,204.5z"/>
		<polygon class="st7" points="86,128.7 83.7,132 89.4,166.1 92.7,167.2 		"/>
		
			<rect x="89.3" y="127" transform="matrix(0.9851 -0.1721 0.1721 0.9851 -23.7619 18.9646)" class="st7" width="16.5" height="39.1"/>
		<path class="st7" d="M101.7,124.5l1.1-0.2c0.6-0.1,1.2,0.3,1.3,0.9l6.8,39c0.1,0.6-0.3,1.2-0.9,1.3l-1.1,0.2
			c-0.6,0.1-1.2-0.3-1.3-0.9l-6.8-39C100.7,125.2,101.1,124.6,101.7,124.5z"/>
		<path class="st11" d="M83.2,156.6c-3.7,0-6.9-2.8-7.3-6.5c-0.6-4.1,2.3-7.8,6.4-8.4c2.2-0.3,4.5,0.4,6.1,2l10.1-5.8
			c0.7-0.4,1.5-0.1,1.9,0.5c0.1,0.1,0.1,0.3,0.2,0.4l2.4,13.7c0.1,0.8-0.4,1.5-1.1,1.6c-0.2,0-0.3,0-0.5,0l-11.4-1.8
			C88.6,155,86,156.6,83.2,156.6L83.2,156.6z M83.2,142.9c-0.3,0-0.6,0-0.9,0.1c-3.3,0.5-5.7,3.6-5.3,7c0.5,3.4,3.6,5.8,7,5.4
			c2.2-0.3,4.1-1.7,4.9-3.8l0.2-0.4l12.4,2c0.1,0,0.1,0,0.2-0.1c0,0,0.1-0.1,0.1-0.2l-2.4-13.7c0-0.1-0.1-0.1-0.1-0.1
			c-0.1,0-0.1,0-0.2,0l-10.9,6.2l-0.3-0.3C86.6,143.6,84.9,142.9,83.2,142.9L83.2,142.9z"/>
		<path class="st11" d="M107.5,164.3c0-0.1-0.1-0.3-0.1-0.4c-0.1-0.3-0.1-0.7-0.2-1.1c-0.2-1-0.4-2.4-0.7-4.1
			c-0.6-3.5-1.5-8.2-2.4-13.4c-0.9-5.2-1.7-10-2.3-13.5c-0.3-1.7-0.5-3.1-0.7-4.1c-0.1-0.5-0.1-0.8-0.2-1.1c0-0.1,0-0.3,0-0.4
			c0,0.1,0.1,0.2,0.1,0.4c0.1,0.3,0.1,0.7,0.2,1.1c0.2,1,0.5,2.4,0.8,4.1c0.6,3.4,1.5,8.2,2.4,13.4c0.9,5.2,1.7,10,2.3,13.5
			c0.3,1.7,0.5,3.1,0.6,4.1c0.1,0.5,0.1,0.9,0.1,1.1C107.5,164.1,107.5,164.2,107.5,164.3z"/>
		<path class="st11" d="M92.4,167.3c0-0.1-0.1-0.3-0.1-0.4c-0.1-0.3-0.1-0.6-0.2-1.1c-0.2-1-0.4-2.4-0.7-4.1
			c-0.6-3.5-1.5-8.2-2.4-13.4c-0.9-5.2-1.7-10-2.3-13.5c-0.3-1.7-0.5-3.1-0.7-4.1c-0.1-0.5-0.1-0.8-0.2-1.1c0-0.1,0-0.3,0-0.4
			c0,0.1,0.1,0.3,0.1,0.4c0.1,0.3,0.1,0.7,0.2,1.1c0.2,1,0.5,2.4,0.8,4.1c0.6,3.4,1.5,8.2,2.4,13.4c0.9,5.3,1.7,10,2.3,13.5
			c0.3,1.7,0.5,3.1,0.6,4.1c0.1,0.5,0.1,0.9,0.1,1.1C92.4,167.1,92.4,167.2,92.4,167.3z"/>
		<path class="st7" d="M161.1,129.3c-0.3,0.2-0.5,0.4-0.8,0.5l-2.3,1.4c-2,1.1-4.7,2.7-7.7,4.4l-0.1,0h-0.1H150
			c-3.4-0.6-6.6-1.2-8.8-1.6l-2.7-0.5c-0.3-0.1-0.7-0.1-1-0.2c0.3,0,0.7,0.1,1,0.1l2.7,0.4c2.3,0.4,5.4,0.9,8.8,1.5h0.1H150
			c3-1.7,5.8-3.2,7.8-4.3l2.4-1.3C160.5,129.5,160.8,129.4,161.1,129.3z"/>
	</g>
	<g id="freepik--Books--inject-3" class="st2">
		<path class="st9" d="M170.1,199.1h51.1l0,0v26.8l0,0h-51.1c-5.8,0-10.6-4.7-10.6-10.6v-5.7C159.6,203.8,164.3,199.1,170.1,199.1
			L170.1,199.1z"/>
		<path class="st9" d="M207.9,199.1h107.8c1,0,1.8,0.8,1.8,1.8v0.9c0,1-0.8,1.8-1.8,1.8H207.9l0,0V199.1L207.9,199.1z"/>
		<path class="st9" d="M207.9,221.5h107.8c1,0,1.8,0.8,1.8,1.8v0.9c0,1-0.8,1.8-1.8,1.8H207.9l0,0V221.5L207.9,221.5z"/>
		<path class="st3" d="M314.1,221.5h-94c-4.9,0-9-4-9-9c0,0,0,0,0,0l0,0c0-4.9,4-9,9-9l0,0h94C311.6,209.3,311.6,215.8,314.1,221.5z
			"/>
		<path class="st8" d="M211.2,225.9h-40.8c-6,0-10.8-4.8-10.8-10.8v-5.3c0-5.9,4.8-10.7,10.7-10.7h0h41.9
			C202.5,205,203.2,219.1,211.2,225.9z"/>
		<path class="st7" d="M302.7,213.3c0,0.1-19.3,0.2-43.1,0.2s-43.1-0.1-43.1-0.2s19.3-0.2,43.1-0.2S302.7,213.3,302.7,213.3z"/>
		<path class="st7" d="M311.6,217.3c0,0.1-19.3,0.2-43.1,0.2s-43.1-0.1-43.1-0.2s19.3-0.2,43.1-0.2
			C292.3,217.2,311.6,217.2,311.6,217.3z"/>
		<path class="st7" d="M309,207.7c0,0.1-19.3,0.2-43.1,0.2s-43.1-0.1-43.1-0.2s19.3-0.2,43.1-0.2S309,207.6,309,207.7z"/>
		<path class="st7" d="M206.4,224c0,0.1-9,0.2-20.2,0.2s-20.2-0.1-20.2-0.2c0-0.1,9-0.2,20.2-0.2C197.4,223.9,206.4,224,206.4,224z"
			/>
		<path class="st7" d="M206.4,201.3c0,0.1-9,0.2-20.2,0.2s-20.2-0.1-20.2-0.2s9-0.2,20.2-0.2C197.4,201.2,206.4,201.3,206.4,201.3z"
			/>
		<path class="st9" d="M147.6,244.7h68.8l0,0v34.5l0,0h-68.8c-5.8,0-10.6-4.7-10.6-10.6v-13.4C137,249.5,141.8,244.7,147.6,244.7z"
			/>
		<path class="st9" d="M199.2,244.7h139.3c1,0,1.8,0.8,1.8,1.8v2.2c0,1-0.8,1.8-1.8,1.8H199.2l0,0V244.7L199.2,244.7z"/>
		<path class="st9" d="M199.2,273.5h139.3c1,0,1.8,0.8,1.8,1.8v2.2c0,1-0.8,1.8-1.8,1.8H199.2l0,0V273.5L199.2,273.5z"/>
		<path class="st3" d="M336.1,273.5H215c-6.4,0-11.5-5.2-11.5-11.5l0,0c0-6.4,5.2-11.5,11.5-11.5h121.1
			C332.8,257.8,332.8,266.2,336.1,273.5z"/>
		<path class="st8" d="M203.4,279.3h-56c-5.8,0-10.4-4.7-10.4-10.4c0,0,0,0,0,0v-13.3c0-6,4.8-10.8,10.8-10.8h56.9
			C192.3,252.3,193.2,270.5,203.4,279.3z"/>
		<path class="st7" d="M321.3,263.1c0,0.1-24.9,0.2-55.5,0.2s-55.5-0.1-55.5-0.2s24.8-0.2,55.5-0.2S321.3,263,321.3,263.1z"/>
		<path class="st7" d="M332.8,268.2c0,0.1-24.9,0.2-55.5,0.2s-55.5-0.1-55.5-0.2s24.8-0.2,55.5-0.2S332.8,268.1,332.8,268.2z"/>
		<path class="st7" d="M329.4,258.3c0,0.1-24.8,0.2-55.5,0.2s-55.5-0.1-55.5-0.2s24.8-0.2,55.5-0.2S329.4,258.2,329.4,258.3z"/>
		<path class="st7" d="M197.4,276.8c0,0.1-11.6,0.2-26,0.2s-26-0.1-26-0.2s11.6-0.2,26-0.2S197.4,276.8,197.4,276.8z"/>
		<path class="st7" d="M197.4,247.6c0,0.1-11.6,0.2-26,0.2s-26-0.1-26-0.2s11.6-0.2,26-0.2S197.4,247.5,197.4,247.6z"/>
		<path class="st11" d="M180.3,225.1h56.7l0,0v19.8l0,0h-56.7c-4.3,0-7.8-3.5-7.8-7.8v-4.2C172.5,228.6,176,225.1,180.3,225.1
			L180.3,225.1z"/>
		<path class="st11" d="M223.1,225.1h112.7c1,0,1.8,0.8,1.8,1.8l0,0v1c0,1-0.8,1.8-1.8,1.8l0,0H223.1l0,0V225.1L223.1,225.1z"/>
		<path class="st11" d="M223.1,240.2h112.7c1,0,1.8,0.8,1.8,1.8l0,0v1c0,1-0.8,1.8-1.8,1.8l0,0H223.1l0,0V240.2L223.1,240.2z"/>
		<path class="st3" d="M334.2,240.2H231.8c-2.9,0-5.2-2.3-5.2-5.2l0,0c0-2.9,2.3-5.2,5.2-5.2h0h102.5
			C331.6,233.2,331.6,236.7,334.2,240.2z"/>
		<path class="st8" d="M226.5,244.9h-46.1c-4.3,0-7.8-3.5-7.8-7.8c0,0,0,0,0,0v-3.9c0-4.4,3.6-8,8-8c0,0,0,0,0,0h47
			C217.4,229.4,218.2,239.8,226.5,244.9z"/>
		<path class="st7" d="M322.3,234.2c0,0.1-20.2,0.2-45.1,0.2s-45.1-0.1-45.1-0.2s20.2-0.2,45.1-0.2S322.3,234.1,322.3,234.2z"/>
		<path class="st7" d="M331.6,237c0,0.1-20.2,0.2-45.1,0.2c-24.9,0-45.1-0.1-45.1-0.2s20.2-0.2,45.1-0.2S331.6,236.9,331.6,237z"/>
		<path class="st7" d="M221.6,242.9c0,0.1-9.4,0.2-21.1,0.2c-11.7,0-21.1-0.1-21.1-0.2s9.4-0.2,21.1-0.2
			C212.1,242.7,221.6,242.8,221.6,242.9z"/>
		<path class="st7" d="M221.6,227.4c0,0.1-9.4,0.2-21.1,0.2c-11.7,0-21.1-0.1-21.1-0.2c0-0.1,9.4-0.2,21.1-0.2
			C212.1,227.3,221.6,227.3,221.6,227.4z"/>
		<path class="st7" d="M336.3,225.1c0,0.1-34.7,0.2-77.4,0.2s-77.5-0.1-77.5-0.2s34.7-0.2,77.4-0.2S336.3,225,336.3,225.1z"/>
		<polygon class="st9" points="274.1,207.4 274.1,218.1 277.9,215.8 282,218.1 282,207.4 		"/>
	</g>
	<g id="freepik--graduation-cap--inject-3" class="st2">
		<path class="st9" d="M331.1,162.8v49.1c0,0.2,0.2,0.4,0.4,0.3c0.2,0,0.3-0.2,0.3-0.3v-49.1c0-0.2-0.2-0.4-0.4-0.3
			C331.2,162.5,331.1,162.7,331.1,162.8z"/>
		<path class="st9" d="M334.2,201.1c0,1.5-1.2,2.8-2.8,2.8s-2.8-1.2-2.8-2.8c0-1.5,1.2-2.8,2.8-2.8l0,0
			C333,198.3,334.2,199.6,334.2,201.1z"/>
		<path class="st9" d="M330.7,202.5c0,0-2,2-2.6,7.9c-0.6,5.9-0.7,8.9-0.7,8.9l5.4,0.3v-4.2c0,0.2,1.1,3.2,1.1,3.2l4.3-1.4
			C338.1,217.2,336.6,201.5,330.7,202.5z"/>
		<rect x="210" y="166.9" class="st7" width="92.4" height="33.3"/>
		<rect x="176.8" y="161.1" class="st7" width="158" height="5.7"/>
		<path class="st8" d="M210,190.7c0,0,28.1-10.1,46.2-13.8c18.1-3.7,46.2-2.5,46.2-2.5v-7.6H210V190.7z"/>
		<rect x="176.8" y="161.1" class="st8" width="57.2" height="5.7"/>
		<path class="st11" d="M333.7,166.9c0,0.1-35.1,0.2-78.5,0.2s-78.5-0.1-78.5-0.2s35.1-0.2,78.5-0.2S333.7,166.8,333.7,166.9z"/>
		<path class="st11" d="M233.9,166.9c-0.2-1.9-0.2-3.9,0-5.8C234.1,163,234.1,165,233.9,166.9z"/>
		<path class="st11" d="M247,200.2c-0.1,0-0.2-6.5-0.2-14.5c0-8,0.1-14.5,0.2-14.5s0.2,6.5,0.2,14.5
			C247.2,193.7,247.1,200.2,247,200.2z"/>
	</g>
	<g id="freepik--Character--inject-3" class="st2">
		<path class="st12" d="M113.4,241.1l10.6-4.3l8.1-21.2l10.8,5.6c0,0-1,2.1-3.3,7.3c-0.9,2-3.7,7.6-4.9,10.3
			c-2.2,5.1-7.2,8.5-12.7,8.7l-10,0.3L113.4,241.1z"/>
		<path class="st12" d="M108.1,237l-1.6-1.7c-0.3-0.2-0.7-0.3-1-0.3l-5.1,0.2c-1,0.1-1.8,0.6-2.4,1.4l-1.9,3.1c0,0-1.2,2.2-1.1,2.7
			c0.1,0.5,0.6,0.7,1.1,0.6c0,0,0.2,1,0.5,1.2c0.4,0.2,0.8,0.2,1.2,0.1c0.2,0.4,0.6,0.6,1,0.6c0.1,0,0.2,0,0.3,0
			c0.6-0.2,0.9-1.4,0.9-1.4l2.6-0.5c0,0,3.7,2.5,5,4.1c1.3,1.6,4.7,0.4,4.7,0.4l1.3-6.1L108.1,237z"/>
		<path class="st13" d="M104.4,237.7c-0.4,0.1-0.7,0.2-1.1,0.2c-0.7,0.1-1.7,0.1-2.8,0.3l0.1-0.1c-0.2,0.4-0.4,0.8-0.7,1.2
			c-0.7,1.1-1.5,2-2.4,2.9c-0.4,0.4-0.8,0.7-1.3,0.9c0,0,0.4-0.4,1.1-1.1c0.9-0.9,1.7-1.8,2.3-2.9c0.2-0.4,0.5-0.8,0.7-1.2l0-0.1
			h0.1c1.1-0.1,2.1-0.1,2.8-0.1C103.6,237.6,104,237.7,104.4,237.7z"/>
		<path class="st13" d="M104.5,240.1c-0.3,0.1-0.6,0.2-1,0.3c-0.8,0.1-1.7,0.1-2.5-0.1l0.2-0.1c-0.1,0.3-0.2,0.6-0.4,0.9
			c-0.5,1-1.1,1.8-1.9,2.5c-0.3,0.3-0.7,0.6-1.1,0.7c0.3-0.3,0.6-0.6,0.9-0.9c0.7-0.7,1.3-1.6,1.8-2.5c0.1-0.3,0.3-0.6,0.4-0.9
			l0-0.1h0.1C102.2,240.2,103.4,240.2,104.5,240.1z"/>
		<path class="st12" d="M110.9,241.4l-4.5-2.1c-0.6-0.3-1.3-0.5-2-0.6c-0.7,0.1-1.5,0.3-2.1,0.7l-2.4,1.3c-0.1,0.1-0.3,0.2-0.3,0.3
			c0,0.1,0.1,0.4,0.2,0.5c1.3,1.2,3.3,1.3,4.7,0.2c0.3,1.1,0.8,2.1,1.5,3c0.7,0.9,1.8,1.4,3,1.3"/>
		<path class="st13" d="M109,246c0,0-0.1,0-0.1,0c-0.1,0-0.2,0-0.4,0c-0.5,0-0.9-0.1-1.4-0.3c-0.7-0.3-1.2-0.8-1.6-1.5
			c-0.5-0.8-0.9-1.6-1.2-2.5l0.2,0.1c-0.7,0.6-1.7,0.9-2.6,0.8c-0.5,0-1-0.2-1.5-0.4c-0.2-0.1-0.5-0.3-0.7-0.4
			c-0.1-0.1-0.2-0.2-0.3-0.3c-0.1-0.1-0.2-0.3-0.1-0.5c0-0.1,0.1-0.3,0.3-0.3c0.1-0.1,0.2-0.1,0.3-0.2l0.6-0.3l1.1-0.6
			c0.7-0.4,1.4-0.7,2.2-1c0.7-0.1,1.5,0,2.2,0.3c0.6,0.3,1.2,0.6,1.7,0.8l2.4,1.2c0.3,0.1,0.6,0.3,0.9,0.5c-0.3-0.1-0.6-0.2-0.9-0.4
			l-2.5-1.1l-1.7-0.8c-0.6-0.3-1.3-0.4-2-0.3c-0.7,0.2-1.4,0.5-2.1,0.9l-1.1,0.6l-0.6,0.3c-0.2,0.1-0.4,0.2-0.4,0.3
			c0,0.1,0.1,0.3,0.3,0.5c0.2,0.2,0.4,0.3,0.6,0.4c0.4,0.2,0.9,0.3,1.3,0.4c0.9,0.1,1.7-0.2,2.4-0.7l0.2-0.1l0.1,0.2
			c0.3,0.9,0.7,1.7,1.1,2.5c0.4,0.6,0.9,1.1,1.5,1.4C107.8,245.9,108.4,246,109,246z"/>
		<path class="st7" d="M169.9,182c0-3.4,0.6-6.8,0.4-10.2c-0.2-3.4-1-6.9-3.4-9.4s-6.5-3.4-9.3-1.4l-0.6,2.9
			c1.1,13.1,0.9,26.5,2,39.6c0.1,1.7,1.5,3.3,2.3,4.8s2.4,2.8,4.1,2.7c2.3-0.1,3.7-2.4,4.4-4.6C172.6,198.7,169.8,190.3,169.9,182z"
			/>
		<path class="st9" d="M161.7,164.4c-0.5-0.9-1-1.7-1.7-2.3c-0.7-0.7-1.7-1-2.7-0.9c-0.5,0.1-0.9,0.4-1.1,0.8c-0.1,0.4,0.2,1,0.6,1
			l0.1,0.1c1,0.9,2.1,1.8,3.1,2.6c0.3,0.2,0.5,0.4,0.9,0.5c0.3,0.1,0.7,0,1-0.2C162.3,165.5,162,164.9,161.7,164.4z"/>
		<path class="st7" d="M163.7,167.7c-3.4-4.1-7.9-6.5-13.3-6.6c-3-0.1-4.3,0.6-6.4,1.2c-2.2,0.5-4.1,1.8-5.4,3.6
			c-1.5,2.2-2.8,4.6-3.1,7.3c-0.4,2.7-0.5,5.5-0.4,8.2c0.1,2.8,1,5.4,2.6,7.7l7,1.2c3.9,0.1,7.8,0.3,11.5-0.6
			c3.8-0.9,7.4-2.9,9.4-6.2C168.2,179,167,171.9,163.7,167.7z"/>
		<path class="st12" d="M157.5,167.7l-9.3-3.7l-2.4,0.3c-5.5,0-9.2,6.1-9.3,10.5c0,4.9,0.1,10.9,0.9,14.6c1.6,7.3,7.8,7.9,7.8,7.9
			s-0.1,3.9-0.2,6.3l14.2-1l0.7-32.3C159.9,168.8,158.8,167.7,157.5,167.7z"/>
		<path class="st13" d="M148.3,187.6c-0.1-0.4-0.2-0.7-0.5-1c-0.5-0.5-1.3-0.5-1.9-0.1c-0.6,0.5-0.9,1.2-0.8,2l0,0
			c0.3,0.5,0.8,0.7,1.4,0.8c0.1,0,0.2,0,0.3,0c0.4,0,0.9-0.2,1.2-0.5C148.2,188.5,148.3,188,148.3,187.6z"/>
		<path class="st7" d="M138.9,181c0,0.5,0.4,0.9,1,0.9c0.5,0,0.9-0.4,0.9-0.9c0,0,0,0,0,0c0-0.5-0.5-0.9-1-0.9
			C139.3,180,138.9,180.4,138.9,181C138.9,180.9,138.9,181,138.9,181z"/>
		<path class="st7" d="M138.1,177.2c0.1,0.1,0.8-0.4,1.8-0.5s1.8,0.4,1.9,0.3c0.1-0.1-0.1-0.3-0.4-0.5c-0.5-0.3-1-0.4-1.5-0.4
			c-0.5,0-1,0.2-1.4,0.6C138.1,176.9,138,177.1,138.1,177.2z"/>
		<path class="st7" d="M144.6,185.2c-0.5-0.1-1.1-0.2-1.7-0.2c-0.3,0-0.5,0-0.6-0.2c0-0.3,0-0.5,0.1-0.8c0.2-0.6,0.4-1.3,0.7-2
			c0.9-2.9,1.6-5.2,1.4-5.3s-0.9,2.3-1.9,5.1l-0.6,2c-0.1,0.3-0.2,0.7-0.1,1c0.1,0.2,0.2,0.3,0.4,0.4c0.1,0,0.3,0,0.4,0
			C143.5,185.3,144.1,185.3,144.6,185.2z"/>
		<path class="st13" d="M145.1,197.2c3.5-0.1,6.8-1.2,9.7-3.2c0,0-2.3,5.2-9.7,5L145.1,197.2z"/>
		<path class="st7" d="M147.7,185.7c-0.2,0-0.1,1.1-1,1.9c-0.9,0.8-2.1,0.8-2.1,0.9c0,0.2,0.3,0.2,0.8,0.2c0.6,0,1.3-0.3,1.7-0.7
			c0.5-0.4,0.7-1,0.8-1.6C147.9,185.9,147.7,185.7,147.7,185.7z"/>
		<path class="st7" d="M138.5,173.6c0.2,0.2,1,0,1.9,0.1c0.9,0,1.7,0.2,1.9,0c0.1-0.1,0-0.3-0.4-0.6c-0.4-0.3-1-0.4-1.5-0.4
			c-0.5,0-1.1,0.1-1.5,0.4C138.5,173.3,138.4,173.5,138.5,173.6z"/>
		<path class="st7" d="M150,180.7c0,0.5-0.4,0.9-0.9,1c-0.5,0-0.9-0.3-1-0.8c0,0,0,0,0,0c0-0.5,0.4-0.9,0.9-1
			C149.5,179.8,149.9,180.2,150,180.7C150,180.7,150,180.7,150,180.7z"/>
		<path class="st7" d="M151.8,176.8c-0.1,0.1-0.8-0.4-1.9-0.4c-1,0-1.7,0.5-1.9,0.4c-0.1-0.1,0.1-0.3,0.4-0.5c0.4-0.3,1-0.5,1.5-0.5
			c0.5,0,1,0.1,1.5,0.4C151.8,176.5,151.9,176.7,151.8,176.8z"/>
		<path class="st7" d="M151.2,173.6c-0.2,0.2-1,0-1.9,0c-0.9,0-1.7,0.2-1.9-0.1c-0.1-0.1,0-0.3,0.4-0.6c0.5-0.3,1-0.4,1.6-0.4
			c0.5,0,1.1,0.1,1.5,0.4C151.2,173.2,151.3,173.4,151.2,173.6z"/>
		<path class="st12" d="M158.7,182.5c0-0.5,0.5-1.9,1.1-2c1.4-0.3,4-0.3,4.3,3.3c0.3,5-4.8,4.3-4.8,4.1
			C159.2,187.9,158.7,184.4,158.7,182.5z"/>
		<path class="st13" d="M160.5,186.1c0,0,0.1,0.1,0.2,0.1c0.2,0.1,0.4,0.1,0.7,0c0.5-0.2,0.9-1.1,0.9-2c0-0.4-0.1-0.9-0.3-1.2
			c-0.1-0.3-0.4-0.5-0.7-0.6c-0.2,0-0.4,0.1-0.5,0.3c-0.1,0.1,0,0.2,0,0.3c0,0-0.1-0.1-0.1-0.3c0-0.1,0.1-0.2,0.2-0.3
			c0.1-0.1,0.3-0.2,0.5-0.2c0.4,0.1,0.8,0.3,1,0.7c0.2,0.4,0.4,0.9,0.4,1.4c0,1-0.4,2-1.1,2.2c-0.3,0.1-0.6,0.1-0.8-0.1
			C160.5,186.2,160.5,186.1,160.5,186.1z"/>
		<path class="st7" d="M159.9,180.6l-1.3,1.3c-5.5-5.3-16.3-18.4-15.6-17.7c2.5-0.9,5.2-1.2,7.9-0.8c4.1,0.7,11.8,2.7,11.7,7.6
			C162.5,175.8,159.9,180.6,159.9,180.6z"/>
		<path class="st11" d="M167.2,179.5c0-0.1,0-0.2-0.1-0.3c-0.1-0.3-0.2-0.5-0.3-0.8c-0.5-0.9-1.2-1.7-2.1-2.4
			c-1.3-0.9-2.7-1.6-4.2-2c-1.7-0.5-3.6-1-5.4-1.8c-1.8-0.7-3.4-1.7-4.9-2.8c-1.3-0.9-2.4-1.9-3.5-3.1c-0.7-0.8-1.4-1.6-2-2.4
			l-0.5-0.7c-0.1-0.1-0.1-0.2-0.2-0.2c0,0.1,0.1,0.2,0.1,0.3c0.1,0.2,0.3,0.4,0.5,0.7c0.6,0.9,1.3,1.7,2,2.5
			c2.4,2.6,5.3,4.6,8.5,5.9c1.8,0.7,3.6,1.3,5.4,1.8c1.5,0.4,2.9,1.1,4.2,1.9c0.9,0.6,1.6,1.4,2.1,2.3
			C167,179.1,167.2,179.5,167.2,179.5z"/>
		<path class="st11" d="M165.7,180.2c0-0.4,0-0.7-0.2-1.1c-0.4-1-1-1.8-1.9-2.4c-1.3-0.8-2.7-1.4-4.2-1.6c-1.8-0.4-3.5-0.9-5.2-1.7
			c-1.7-0.8-3.2-1.7-4.6-2.9c-1.2-0.9-2.2-2-3.2-3.1c-0.7-0.8-1.3-1.6-1.8-2.4l-0.4-0.7c0-0.1-0.1-0.2-0.2-0.2
			c0,0.1,0.1,0.2,0.1,0.3l0.4,0.7c0.5,0.9,1.1,1.7,1.7,2.5c0.9,1.2,2,2.2,3.2,3.2c1.4,1.2,3,2.1,4.7,2.9c1.7,0.7,3.4,1.3,5.2,1.6
			c1.5,0.2,2.9,0.8,4.1,1.6c0.8,0.5,1.5,1.3,1.9,2.2C165.6,179.5,165.7,179.9,165.7,180.2z"/>
		<path class="st11" d="M159.8,189.1c0,0,0.4-0.1,1.2-0.3c1-0.3,2-0.8,2.8-1.6c1.2-1.1,2.1-2.5,2.6-4c0.7-1.9,1.1-3.8,1.1-5.8
			c0-1-0.1-2-0.2-3c-0.5-2.5-1.7-4.9-3.4-6.8c-1-1.1-2.2-2.1-3.4-2.9c0,0,0.1,0,0.3,0.1s0.4,0.3,0.8,0.5c0.9,0.6,1.7,1.3,2.5,2.2
			c1.1,1.2,2,2.6,2.7,4.1c0.4,0.9,0.7,1.8,0.9,2.8c0.2,1,0.3,2.1,0.3,3.1c0,2-0.4,4-1.1,5.9c-0.6,1.6-1.5,2.9-2.7,4.1
			c-0.8,0.7-1.8,1.3-2.9,1.5c-0.3,0.1-0.6,0.1-0.9,0.1C160,189,159.9,189.1,159.8,189.1z"/>
		<path class="st7" d="M166.1,250.7l-29.6,4.3c-11.1,3.2-22.9,4.1-35.1,3l44.6,20.8l17.9,0.3c0,0,5.5,0,6.4-4.8s2-19.2,2-19.2
			S168.8,252,166.1,250.7z"/>
		<g class="st14">
			<path d="M166,263.2c0.5,3,0.7,6,0.5,9c1.8-2,2.7-4.8,2.2-7.5c-0.3-1.5-0.9-3.1-0.1-4.4c0.5-0.9,1.9-1.8,1.7-2.8c0,0-1.2,0-2.3,0
				c-0.9,0-2.7-0.1-2.7-0.1c0.8,1.9,0.9,3.9,0.5,5.9"/>
		</g>
		<polygon class="st12" points="145,202.3 159.4,200.7 162,203.1 151.8,209.2 147.2,211.5 142.7,210.2 141.3,207.5 		"/>
		<path class="st11" d="M125.6,219.8c0,0,4.5-8.7,5.6-10.6c1.9-3.2,5.5-5.1,5.5-5.1l8.3-1.9c0,0-0.9,4.2,4.3,4.5
			c6.6,0.4,10.7-5.9,10.7-5.9s7.5,0.8,9.6,1.6s7.9,3.3,8.8,11.1l2,12.7l-15.9,1.2l0.2,17L158,250c0,0-19.4,6.7-20.6,7.1
			c-0.6,0.2-0.4-8-1.8-15.1l-2.6-6.3c-1.1-2.5-1.7-5.2-1.9-8c-0.1-1.8-0.1-3.2-0.1-3.2S127,223.1,125.6,219.8z"/>
		<path class="st12" d="M138.1,250.5l26.6-8l-0.2-14.9l13.6-1c0,0-1.1,7.7-1.2,11.7c-0.2,5.7-3,13.7-4.8,15.4s-34.6,3.5-34.6,3.5
			L138.1,250.5z"/>
		<path class="st12" d="M123,255.2c0.3,0.5,0.8,0.6,1.3,0.4c0.6-0.2,0.4-1.5,0.4-1.5l2.8-0.7c0,0,3.9,2.1,5.4,3.6
			c1.5,1.5,4.7-0.1,4.7-0.1l0.7-6.2l-5.7-4.4c0,0,0.3,0.3-0.1-0.6s-2.1-0.4-2.1-0.4c-0.3-0.4-1.4-0.5-1.4-0.5l-4.6,0.9
			c-0.9,0.2-1.8,0.8-2.2,1.6l-1.7,3.3c0,0-0.9,2.3-0.7,2.8c0.2,0.4,0.7,0.7,1.1,0.5c0,0,0.3,1.5,0.7,1.5
			C122.3,255.5,122.6,255.3,123,255.2L123,255.2z"/>
		<path class="st13" d="M132.5,250c0,0-0.6,0-1.6,0.2c-1.3,0.2-2.5,0.5-3.7,1c-0.7,0.3-1.3,0.6-1.9,1c-0.5,0.4-1.1,0.7-1.2,1.1
			c-0.1,0.2,0,0.4,0.1,0.5c0.1,0.1,0.2,0.2,0.4,0.3c0.3,0.1,0.4,0,0.4,0s-0.1,0.1-0.4,0.1c-0.2,0-0.3-0.1-0.5-0.3
			c-0.2-0.2-0.2-0.5-0.2-0.7c0.1-0.3,0.3-0.5,0.5-0.7c0.2-0.2,0.5-0.4,0.8-0.6c1.7-1.1,3.7-1.8,5.7-2
			C131.4,249.9,132,249.9,132.5,250z"/>
		<path class="st13" d="M133.1,252.9c0,0.1-1.9,0.2-4.2,0.5c-2.3,0.3-4.1,0.7-4.2,0.7c0.4-0.2,0.8-0.3,1.2-0.4c1-0.2,2-0.4,2.9-0.6
			c1-0.1,2-0.2,3-0.2C132.2,252.8,132.7,252.9,133.1,252.9z"/>
		<path class="st13" d="M123,255c0-0.2-0.1-0.3-0.1-0.5c-0.1-0.5-0.1-0.9-0.1-1.4c0-0.3,0-0.6,0.1-0.9c0.1-0.4,0.2-0.7,0.4-1
			c0.4-0.7,0.9-1.4,1.6-1.9c0.6-0.5,1.4-1,2.1-1.3c0.6-0.2,1.3-0.4,2-0.5c0.6-0.1,1-0.1,1.4-0.1c0.2,0,0.3,0,0.5,0
			c-0.6,0.1-1.2,0.2-1.8,0.3c-0.7,0.1-1.3,0.3-1.9,0.5c-0.7,0.3-1.4,0.8-2,1.3c-0.6,0.5-1.1,1.1-1.5,1.8c-0.3,0.6-0.5,1.2-0.5,1.9
			C123,254.3,123.1,255,123,255z"/>
		<path class="st13" d="M129.1,246.1c0,0-0.7,0.1-1.8,0.3c-1.1,0.2-2.8,0.5-3.6,2c-0.9,1.2-1.5,2.5-2.1,3.8
			c-0.2,0.6-0.3,1.2-0.3,1.8c-0.1-0.2-0.1-0.3-0.1-0.5c0-0.5,0-0.9,0.2-1.3c0.5-1.4,1.1-2.7,2-3.9c0.2-0.4,0.5-0.7,0.8-1
			c0.3-0.3,0.7-0.5,1-0.6c0.6-0.2,1.3-0.4,1.9-0.5C127.8,246.1,128.4,246.1,129.1,246.1z"/>
		<path class="st13" d="M131.9,256.2c-0.1-0.1-0.2-0.1-0.3-0.2l-0.8-0.6c-1-0.7-2.1-1.3-3.2-1.9h0.1l-2.8,0.7l0.1-0.1
			c0,0.2,0,0.5,0,0.7c0,0.3-0.1,0.5-0.3,0.7c-0.1,0.1-0.2,0.2-0.4,0.2c-0.1,0-0.3,0.1-0.4,0.1c-0.3,0-0.5-0.1-0.7-0.3
			c0-0.1-0.1-0.1-0.1-0.2v0l0,0l0,0l0,0l0.2,0l0,0l-0.1,0c-0.1,0.1-0.2,0.1-0.4,0.2c-0.1,0-0.3,0.1-0.4,0.1c-0.1,0-0.1,0-0.2,0
			c-0.1,0-0.2,0-0.3,0c-0.1-0.1-0.2-0.2-0.3-0.4c-0.1-0.1-0.1-0.3-0.2-0.4c-0.1-0.3-0.2-0.5-0.2-0.8l0.2,0.1c-0.4,0.1-0.8,0-1.1-0.3
			c-0.1-0.2-0.2-0.4-0.2-0.6c0-0.2,0-0.4,0.1-0.6c0.2-0.7,0.4-1.4,0.6-2.1l0,0l0,0l0.9-1.7l0.6-1.1c0.2-0.4,0.4-0.7,0.6-1.1
			c0.3-0.3,0.6-0.6,1-0.8c0.4-0.2,0.8-0.3,1.2-0.3l4.3-0.8h0c0.3,0,0.5,0.1,0.8,0.1c0.3,0.1,0.5,0.2,0.7,0.4l-0.2,0
			c0.5-0.3,1-0.3,1.5,0c0.4,0.3,0.7,0.7,0.8,1.1l0-0.1l3.9,3l1,0.8c0.1,0.1,0.2,0.2,0.4,0.3c-0.1-0.1-0.3-0.2-0.4-0.3l-1.1-0.8
			l-4-2.9h0v0c-0.1-0.4-0.4-0.7-0.7-1c-0.4-0.2-0.9-0.2-1.3,0l-0.1,0l-0.1-0.1c-0.2-0.2-0.3-0.3-0.6-0.3c-0.2-0.1-0.5-0.1-0.7-0.1h0
			L125,246c-0.4,0-0.7,0.2-1.1,0.3c-0.3,0.2-0.6,0.4-0.9,0.7c-0.2,0.3-0.4,0.7-0.6,1l-0.6,1.1c-0.3,0.6-0.6,1.2-0.9,1.7l0,0
			c-0.2,0.7-0.4,1.4-0.6,2.1c0,0.2-0.1,0.3-0.1,0.5c0,0.1,0.1,0.3,0.2,0.4c0.2,0.2,0.5,0.3,0.8,0.2l0.1,0v0.1
			c0.1,0.3,0.1,0.5,0.2,0.8c0.1,0.2,0.2,0.4,0.3,0.6c0,0,0.1,0,0.1,0l0.2,0c0.1,0,0.2-0.1,0.4-0.1c0.1,0,0.2-0.1,0.3-0.1l0.1,0l0,0
			l0.2,0l0,0l0,0l0,0v0c0,0,0.1,0.1,0.1,0.1c0.2,0.2,0.6,0.3,0.9,0.2c0.1,0,0.2-0.1,0.3-0.1c0.2-0.4,0.3-0.8,0.2-1.2v-0.1h0.1
			l2.8-0.7h0l0,0c1.1,0.6,2.2,1.2,3.2,1.9c0.4,0.3,0.6,0.5,0.8,0.6C131.7,256.1,131.8,256.1,131.9,256.2z"/>
		<path class="st7" d="M118,260c0,0-18.8-5.9-24.7-7.8c-10.2-3.3-16.8,0-18.9,3.7c-2.7,4.7,3.8,13.9,6.3,16
			c7.4,6.3,20.2,7.1,20.2,7.1l0,0l45.9-0.1l-13.4-18.2L118,260z"/>
		<path class="st4" d="M120.8,268.5c-7.7,0.9-15.4-0.2-22.5-3.1c-1.2-0.6-2.5-1-3.8-1.4c-1.3-0.3-2.6-0.4-3.9-0.3
			c-1,0-2,0.5-2.7,1.2c-0.9,1.2-0.4,2.9,0.1,4.4c0.6,1.7,1.2,3.4,2.4,4.7c1.4,1.6,3.3,2.5,5.3,3.1c3.9,1.2,8,1.6,12,1.7l13.9-0.8
			L120.8,268.5z"/>
		<path class="st7" d="M93.9,264.1c0.1,0.1,0.2,0.2,0.2,0.4c0.2,0.4,0.3,0.7,0.4,1.1c0.6,2.6-0.3,5.3-2.3,7.1
			c-0.3,0.3-0.6,0.5-0.9,0.7c-0.2,0.1-0.4,0.2-0.4,0.2s0.5-0.3,1.2-1c1.9-1.8,2.7-4.4,2.2-6.9C94.1,264.6,93.8,264.1,93.9,264.1z"/>
		<path class="st7" d="M166,258.9c-1.1-3.1-1.3-7.6-8-9.8c-6.7-2.2-11.8,2-15.3,3.5s-22.3,11.8-22.3,11.8s-3.6,6.3-2.5,9.1
			c1,2.8,5.6,5.6,5.6,5.6h21.1c5.5,0,15.6-0.2,15.6-0.2c1.4-2.2,2.6-4.5,3.6-6.9l0.2-0.9C164,270.3,167,262,166,258.9z"/>
		<path class="st7" d="M154.3,274.9c0,0.1-0.1,0.2-0.2,0.3c-0.2,0.2-0.4,0.4-0.7,0.6c-0.9,0.7-1.9,1.2-3,1.7
			c-0.7,0.3-1.5,0.6-2.2,0.9c-0.9,0.3-1.8,0.5-2.7,0.6c-2.1,0.2-4.1,0.3-6.2,0.2c-4.4,0.1-8.4,0.2-11.3,0.2c-1.4,0-2.6-0.1-3.4-0.1
			c-0.3,0-0.6-0.1-0.9-0.1c-0.1,0-0.2,0-0.3-0.1c0,0,0.4,0,1.2,0.1c0.8,0,2,0.1,3.4,0.1c2.9,0,6.9-0.2,11.3-0.3c2.1,0,4.1,0,6.2-0.2
			c0.9-0.1,1.8-0.3,2.6-0.5c0.7-0.2,1.5-0.5,2.2-0.8c1-0.4,2-1,3-1.6c0.3-0.2,0.5-0.4,0.7-0.6C154.2,275,154.2,274.9,154.3,274.9z"
			/>
		<path class="st7" d="M123.4,279l-0.3-0.1c-0.2-0.1-0.4-0.3-0.8-0.5c-1-0.6-1.9-1.4-2.8-2.2c-0.6-0.6-1.1-1.3-1.6-2
			c-0.4-0.9-0.5-2-0.3-3c0.5-2.4,1.4-4.7,2.6-6.9v0l0,0c3.5-1.9,7.4-4.1,11.8-6.4c2.2-1.2,4.4-2.4,6.8-3.6c1.2-0.6,2.4-1.2,3.6-1.8
			c1.2-0.6,2.4-1.2,3.7-1.8c1.7-0.9,3.6-1.6,5.5-2.1c0.9-0.2,1.9-0.3,2.8-0.3c0.9,0,1.9,0.2,2.8,0.4c1.8,0.4,3.4,1.2,4.8,2.3
			c0.7,0.6,1.3,1.2,1.8,1.9c0.5,0.7,0.8,1.4,1.1,2.2c0.3,0.8,0.5,1.5,0.7,2.3c0.2,0.7,0.4,1.5,0.6,2.2c0.1,1.4,0,2.9-0.4,4.3
			c-0.3,1.3-0.6,2.6-0.9,3.8c-0.2,0.6-0.3,1.2-0.5,1.7c-0.2,0.5-0.3,1.1-0.4,1.6l0,0c-0.1,0.3-0.1,0.6-0.2,0.9l0,0
			c-0.6,1.9-1.4,3.6-2.4,5.3c-0.4,0.6-0.8,1.1-1.3,1.6l0.1-0.1c0.1-0.1,0.1-0.2,0.3-0.3c0.3-0.4,0.6-0.8,0.9-1.2
			c1-1.7,1.8-3.4,2.3-5.3l0,0c0.3-0.3,0.3-0.6,0.2-0.9l0,0c0.1-0.5,0.2-1.1,0.4-1.6l0.5-1.7c0.3-1.2,0.6-2.4,0.9-3.8
			c0.3-1.4,0.4-2.8,0.3-4.2c-0.2-0.7-0.4-1.5-0.6-2.2c-0.2-0.8-0.4-1.5-0.7-2.3c-0.3-0.8-0.7-1.5-1.1-2.2c-0.5-0.7-1.1-1.3-1.7-1.8
			c-2.2-1.6-4.8-2.5-7.4-2.6c-0.9,0-1.9,0.1-2.8,0.3c-1.9,0.4-3.7,1.1-5.4,2c-1.2,0.6-2.4,1.3-3.7,1.9c-1.3,0.5-2.4,1.2-3.6,1.8
			c-2.3,1.2-4.6,2.4-6.8,3.6l-11.8,6.4l0,0c-1.2,2.1-2,4.4-2.6,6.8c-0.2,1-0.1,2,0.3,2.9c0.4,0.7,0.9,1.4,1.5,2
			c0.8,0.8,1.8,1.6,2.7,2.2l0.8,0.5C123.3,279,123.4,279,123.4,279z"/>
		<path class="st4" d="M157.8,271.2c0,0,6.3,0.8,5.7,3.8c-0.6,3.1-2.6,4.1-2.6,4.1l-17.1,0C143.8,279.2,154,278.5,157.8,271.2z"/>
		<path class="st7" d="M158.4,269.7c0,0.3-0.1,0.6-0.2,0.9c-0.2,0.7-0.6,1.3-1,1.9c-0.6,0.8-1.4,1.5-2.4,1.8c0.8-0.6,1.5-1.3,2.2-2
			C157.5,271.5,158,270.6,158.4,269.7z"/>
		<path class="st7" d="M156.3,270.9c0,0.8-0.2,1.5-0.6,2.2c-0.3,0.7-0.8,1.3-1.4,1.8c-0.1-0.1,0.6-0.9,1.1-1.9
			C156,271.8,156.2,270.9,156.3,270.9z"/>
		<path class="st11" d="M164.3,278.3c0,0,0.4-0.8,0.9-2.1c1.3-3.5,1.7-7.2,1.2-10.8c-0.2-1.4-0.4-2.3-0.4-2.3
			c0.1,0.2,0.2,0.4,0.2,0.6c0.1,0.5,0.3,1.1,0.4,1.6c0.6,3.7,0.2,7.5-1.2,10.9c-0.2,0.5-0.5,1-0.7,1.5
			C164.5,277.9,164.4,278.1,164.3,278.3z"/>
		<g class="st14">
			<path d="M160.7,269.5c0-0.4-0.2-0.9-0.6-1c-0.5-0.1-0.8,0.5-1,0.9c-2.2,5-9.3,8.9-14.8,9.4c2.6,0,5.3-0.2,7.9-0.6
				c2.2-0.3,4.3-1.3,6-2.8C159.9,274,160.9,271.8,160.7,269.5z"/>
		</g>
		<path class="st7" d="M119,262.7c-1-0.3-2.1-0.7-3-1.2c-1-0.4-2-0.9-2.9-1.4c1,0.3,2.1,0.7,3,1.2
			C117.1,261.7,118.1,262.1,119,262.7z"/>
		<g class="st15">
			<path d="M125.1,260.1c-8.1-1.6-16.3-2.9-24.5-4.2l-6.1,1.9c1.7,3.2,5.1,5.2,8.6,6.1c3.5,0.8,7.2,0.6,10.8,0.3
				c4-0.4,8-0.9,11.5-2.9c0.3-0.1,0.6-0.4,0.5-0.7C125.8,260.3,125.5,260.1,125.1,260.1z"/>
		</g>
		<path class="st4" d="M85,235.8l10.3,22.7c0.4,0.9,1.4,1.6,2.4,1.6l30,0.4l3.8-2l-5.9-0.4l-9.2-22.1c-0.3-0.7-1-1.2-1.7-1.2
			l-28.7-0.2c-0.5,0-0.9,0.4-0.9,0.9C84.9,235.5,84.9,235.7,85,235.8z"/>
		<path class="st7" d="M85,235.8c0-0.1-0.1-0.2-0.1-0.3c0-0.3,0.1-0.6,0.3-0.8c0.2-0.2,0.4-0.2,0.6-0.3h2.6l12,0l8.4,0l4.7,0h1.2
			c0.4,0,0.9,0.2,1.2,0.5c0.3,0.3,0.6,0.7,0.7,1.1l0.5,1.2c2.6,6.3,5.5,13.2,8.6,20.5l-0.1-0.1l5.7,0.4h0.2l0.6,0l-0.5,0.3l-3.8,2h0
			h0l-22.7-0.3l-5.1-0.1c-0.8,0-1.6,0-2.4,0c-0.8-0.1-1.6-0.6-2-1.3c-1.3-2.8-2.5-5.4-3.5-7.8l-5-11.2c-0.6-1.3-1-2.3-1.3-3
			c-0.1-0.3-0.3-0.6-0.3-0.8C85,235.9,85,235.8,85,235.8c0.1,0.1,0.1,0.2,0.2,0.3l0.4,0.8c0.3,0.7,0.8,1.7,1.4,3L92,251
			c1.1,2.4,2.2,5,3.6,7.7c0.4,0.6,1.1,1,1.8,1.1c0.8,0,1.6,0,2.4,0l5.1,0.1l22.7,0.3h-0.1l3.8-2l0.1,0.3h-0.2l-5.7-0.4h-0.1l0-0.1
			c-3-7.3-5.9-14.3-8.6-20.6l-0.5-1.2c-0.1-0.4-0.3-0.7-0.6-1c-0.3-0.3-0.6-0.4-1-0.4h-1.2l-4.7,0l-8.3-0.1l-12-0.1h-1.9h-0.7
			c-0.5,0-0.9,0.4-0.8,0.9c0,0,0,0,0,0C84.9,235.6,85,235.7,85,235.8z"/>
		<path class="st7" d="M124.6,260.4c-0.1-0.1-0.1-0.2-0.1-0.3l-0.3-0.7c-0.3-0.7-0.7-1.6-1.2-2.7c-1-2.3-2.4-5.5-3.8-9
			s-2.8-6.8-3.6-9.1c-0.4-1.2-0.8-2.1-1-2.8c-0.1-0.3-0.2-0.6-0.3-0.8c0-0.1-0.1-0.2-0.1-0.3c0.1,0.1,0.1,0.2,0.1,0.3l0.3,0.7
			c0.3,0.7,0.7,1.6,1.1,2.8c1,2.4,2.3,5.5,3.7,9.1c1.4,3.5,2.8,6.7,3.7,9.1l1.1,2.8c0.1,0.3,0.2,0.6,0.3,0.8
			C124.5,260.2,124.6,260.3,124.6,260.4z"/>
		<path class="st10" d="M106,246.8c0,0.8-0.7,1.5-1.5,1.5s-1.5-0.7-1.5-1.5c0-0.8,0.7-1.5,1.5-1.5c0,0,0,0,0,0
			C105.3,245.3,106,246,106,246.8L106,246.8z"/>
		<path class="st7" d="M135.1,210.3c0,0-0.4,0.8-1,2.2c-1.6,3.5-2.6,7.2-3.1,11c-0.2,1.5-0.2,2.4-0.3,2.4c0-0.2,0-0.4,0-0.6
			c0-0.4,0-1,0.1-1.8c0.3-3.9,1.4-7.6,3.1-11.1c0.3-0.7,0.6-1.2,0.8-1.5C134.9,210.6,135,210.4,135.1,210.3z"/>
		<path class="st7" d="M180.4,226.3c-0.1,0-0.2,0.1-0.3,0.1l-1,0.1l-3.6,0.3l-12.2,0.9h-0.2v-0.2c-0.1-1.6-0.2-3.3-0.3-5.1
			c-0.2-3.1-0.3-6-0.4-8.6c-0.2-2.4,0.4-4.7,1.6-6.8c0.8-1.4,2-2.5,3.4-3.3c0.4-0.2,0.8-0.4,1.2-0.5c0.1,0,0.3-0.1,0.4-0.1
			c0,0-0.6,0.2-1.6,0.7c-1.4,0.8-2.5,1.9-3.3,3.3c-1.1,2-1.6,4.4-1.4,6.7c0.1,2.6,0.2,5.6,0.4,8.6c0.1,1.7,0.2,3.5,0.3,5.1l-0.2-0.1
			l12.2-0.8l3.6-0.2l1,0L180.4,226.3z"/>
		<path class="st7" d="M150.5,236.7c-0.2,0-0.4-0.1-0.5-0.2c-0.2-0.1-0.4-0.2-0.6-0.3c-0.3-0.1-0.5-0.3-0.7-0.5
			c-0.6-0.4-1.2-0.9-1.8-1.5c-0.6-0.7-1.2-1.5-1.7-2.3c-0.5-0.8-0.8-1.7-1.1-2.6c-0.2-0.7-0.3-1.5-0.4-2.3c0-0.3,0-0.6,0-0.9
			c0-0.2,0-0.4,0-0.7c0-0.2,0-0.4,0.1-0.6c0.1,0,0,0.8,0.1,2.1c0.1,0.7,0.2,1.5,0.4,2.2c0.3,0.9,0.6,1.7,1.1,2.5
			c0.5,0.8,1,1.5,1.6,2.2c0.5,0.6,1.1,1.1,1.7,1.5C149.8,236.3,150.6,236.6,150.5,236.7z"/>
	</g>
</g>
<g>
	<g id="freepik--background-complete--inject-29">
		<rect x="328.1" y="272.2" class="st5" width="25.4" height="0.2"/>
		<rect x="255.7" y="274.3" class="st5" width="6.7" height="0.2"/>
		<rect x="312.6" y="265.1" class="st5" width="14.7" height="0.2"/>
		<rect x="48.3" y="266.4" class="st5" width="33.2" height="0.2"/>
		<rect x="88.3" y="266.4" class="st5" width="4.9" height="0.2"/>
		<rect x="109" y="269.6" class="st5" width="71.9" height="0.2"/>
		<path class="st5" d="M190,225.6H41.8c-2.4,0-4.4-2-4.4-4.4V12.8c0-2.4,2-4.3,4.4-4.3H190c2.4,0,4.4,2,4.4,4.4c0,0,0,0,0,0v208.4
			C194.4,223.6,192.4,225.6,190,225.6z M41.8,8.6c-2.3,0-4.2,1.9-4.2,4.2v208.4c0,2.3,1.9,4.2,4.2,4.2H190c2.3,0,4.2-1.9,4.2-4.2
			V12.8c0-2.3-1.9-4.2-4.2-4.2H41.8z"/>
		<path class="st5" d="M356.1,225.6H207.8c-2.4,0-4.4-2-4.4-4.4V12.8c0-2.4,2-4.3,4.4-4.3h148.3c2.4,0,4.3,1.9,4.4,4.3v208.4
			C360.5,223.6,358.5,225.6,356.1,225.6z M207.8,8.6c-2.3,0-4.2,1.9-4.2,4.2v208.4c0,2.3,1.9,4.2,4.2,4.2h148.3
			c2.3,0,4.2-1.9,4.2-4.2V12.8c0-2.3-1.9-4.2-4.2-4.2H207.8z"/>
		<rect x="8" y="259.8" class="st5" width="383.9" height="0.2"/>
		<polygon class="st5" points="295.3,181.3 295.3,260.3 300.4,260.3 330.5,260.3 335.6,260.3 335.6,181.3 		"/>
		<polygon class="st5" points="303,171.6 303,189.1 306.2,189.1 324.7,189.1 327.9,189.1 327.9,171.6 		"/>
		<rect x="297.9" y="183.9" class="st6" width="5.2" height="5.2"/>
		<rect x="307.9" y="183.9" class="st6" width="5.2" height="5.2"/>
		<rect x="317.9" y="183.9" class="st6" width="5.2" height="5.2"/>
		<rect x="327.9" y="183.9" class="st16" width="5.2" height="5.2"/>
		<rect x="297.9" y="193.3" class="st16" width="5.2" height="5.2"/>
		<rect x="307.9" y="193.3" class="st16" width="5.2" height="5.2"/>
		<rect x="317.9" y="193.3" class="st6" width="5.2" height="5.2"/>
		<rect x="327.9" y="193.3" class="st6" width="5.2" height="5.2"/>
		<rect x="297.9" y="202.7" class="st16" width="5.2" height="5.2"/>
		<rect x="307.9" y="202.7" class="st6" width="5.2" height="5.2"/>
		<rect x="317.9" y="202.7" class="st6" width="5.2" height="5.2"/>
		<rect x="307.9" y="175.8" class="st6" width="5.2" height="5.2"/>
		<rect x="317.9" y="175.8" class="st16" width="5.2" height="5.2"/>
		<rect x="327.9" y="202.7" class="st16" width="5.2" height="5.2"/>
		<rect x="297.9" y="212.1" class="st6" width="5.2" height="5.2"/>
		<rect x="307.9" y="212.1" class="st16" width="5.2" height="5.2"/>
		<rect x="317.9" y="212.1" class="st16" width="5.2" height="5.2"/>
		<rect x="327.9" y="212.1" class="st6" width="5.2" height="5.2"/>
		<rect x="297.9" y="221.4" class="st16" width="5.2" height="5.2"/>
		<rect x="307.9" y="221.4" class="st6" width="5.2" height="5.2"/>
		<rect x="317.9" y="221.4" class="st6" width="5.2" height="5.2"/>
		<rect x="327.9" y="221.4" class="st16" width="5.2" height="5.2"/>
		<rect x="297.9" y="230.8" class="st16" width="5.2" height="5.2"/>
		<rect x="307.9" y="230.8" class="st6" width="5.2" height="5.2"/>
		<rect x="317.9" y="230.8" class="st16" width="5.2" height="5.2"/>
		<rect x="327.9" y="230.8" class="st6" width="5.2" height="5.2"/>
		<rect x="297.9" y="240.2" class="st6" width="5.2" height="5.2"/>
		<rect x="307.9" y="240.2" class="st6" width="5.2" height="5.2"/>
		<rect x="317.9" y="240.2" class="st16" width="5.2" height="5.2"/>
		<rect x="327.9" y="240.2" class="st16" width="5.2" height="5.2"/>
		<rect x="297.9" y="249.6" class="st16" width="5.2" height="5.2"/>
		<rect x="327.9" y="249.6" class="st6" width="5.2" height="5.2"/>
		<polygon class="st3" points="323,249.6 307.9,249.6 307.9,251.1 308.5,251.1 308.5,260.3 310,260.3 310,251.1 320.9,251.1 
			320.9,260.3 322.4,260.3 322.4,251.1 323,251.1 		"/>
		<rect x="310" y="251.1" class="st17" width="5.5" height="9.2"/>
		<rect x="315.5" y="251.1" class="st5" width="5.5" height="9.2"/>
		<polygon class="st3" points="59.4,181.3 59.4,260.3 64.6,260.3 94.6,260.3 99.8,260.3 99.8,181.3 		"/>
		<polygon class="st17" points="62,183.9 62,193.3 62,195.9 62,198.4 67.2,198.4 67.2,195.9 67.2,193.3 67.2,183.9 		"/>
		<polygon class="st16" points="72,183.9 72,193.3 72,195.9 72,198.4 77.2,198.4 77.2,195.9 77.2,193.3 77.2,183.9 		"/>
		<polygon class="st17" points="82,183.9 82,193.3 82,195.9 82,198.4 87.2,198.4 87.2,195.9 87.2,193.3 87.2,183.9 		"/>
		<polygon class="st16" points="92.1,183.9 92.1,193.3 92.1,197.3 92.1,198.4 97.2,198.4 97.2,197.3 97.2,193.3 97.2,183.9 		"/>
		<polygon class="st16" points="62,202.7 62,212.1 62,214.6 62,217.2 67.2,217.2 67.2,214.6 67.2,212.1 67.2,202.7 		"/>
		<polygon class="st16" points="72,202.7 72,212.1 72,215.7 72,217.2 77.2,217.2 77.2,215.7 77.2,212.1 77.2,202.7 		"/>
		<polygon class="st17" points="82,202.7 82,212.1 82,214.6 82,217.2 87.2,217.2 87.2,214.6 87.2,212.1 87.2,202.7 		"/>
		<polygon class="st16" points="92.1,202.7 92.1,212.1 92.1,214.6 92.1,217.2 97.2,217.2 97.2,214.6 97.2,212.1 97.2,202.7 		"/>
		<polygon class="st17" points="62,221.4 62,230.8 62,233.4 62,236 67.2,236 67.2,233.4 67.2,230.8 67.2,221.4 		"/>
		<polygon class="st16" points="72,221.4 72,230.8 72,233.4 72,236 77.2,236 77.2,233.4 77.2,230.8 77.2,221.4 		"/>
		<polygon class="st16" points="82,221.4 82,230.8 82,233.4 82,236 87.2,236 87.2,233.4 87.2,230.8 87.2,221.4 		"/>
		<polygon class="st17" points="92.1,221.4 92.1,230.8 92.1,234.4 92.1,236 97.2,236 97.2,234.4 97.2,230.8 97.2,221.4 		"/>
		<polygon class="st16" points="94.6,240.2 92.1,240.2 87.2,240.2 82,240.2 77.2,240.2 72,240.2 62,240.2 62,245.4 72,245.4 
			77.2,245.4 82,245.4 87.2,245.4 92.1,245.4 94.6,245.4 97.2,245.4 97.2,240.2 		"/>
		<polygon class="st5" points="87.2,249.6 72,249.6 72,251.1 72.6,251.1 72.6,260.3 74.1,260.3 74.1,251.1 85.1,251.1 85.1,260.3 
			86.6,260.3 86.6,251.1 87.2,251.1 		"/>
		<rect x="74.1" y="251.1" class="st6" width="5.5" height="9.2"/>
		<rect x="79.6" y="251.1" class="st3" width="5.5" height="9.2"/>
		<polygon class="st17" points="99.8,217.2 99.8,260.3 105,260.3 135,260.3 140.2,260.3 140.2,217.2 		"/>
		<rect x="102.4" y="221.4" class="st16" width="5.2" height="5.2"/>
		<rect x="112.4" y="221.4" class="st16" width="5.2" height="5.2"/>
		<rect x="122.4" y="221.4" class="st16" width="5.2" height="5.2"/>
		<rect x="132.4" y="221.4" class="st16" width="5.2" height="5.2"/>
		<rect x="102.4" y="230.8" class="st16" width="5.2" height="5.2"/>
		<rect x="112.4" y="230.8" class="st16" width="5.2" height="5.2"/>
		<rect x="122.4" y="230.8" class="st16" width="5.2" height="5.2"/>
		<rect x="132.4" y="230.8" class="st16" width="5.2" height="5.2"/>
		<rect x="102.4" y="240.2" class="st16" width="5.2" height="5.2"/>
		<rect x="112.4" y="240.2" class="st16" width="5.2" height="5.2"/>
		<rect x="122.4" y="240.2" class="st16" width="5.2" height="5.2"/>
		<rect x="132.4" y="240.2" class="st16" width="5.2" height="5.2"/>
		<rect x="102.4" y="249.6" class="st16" width="5.2" height="5.2"/>
		<rect x="132.4" y="249.6" class="st16" width="5.2" height="5.2"/>
		<polygon class="st3" points="127.6,249.6 112.4,249.6 112.4,251.1 113,251.1 113,260.3 114.5,260.3 114.5,251.1 125.5,251.1 
			125.5,260.3 127,260.3 127,251.1 127.6,251.1 		"/>
		<rect x="114.5" y="251.1" class="st17" width="5.5" height="9.2"/>
		<rect x="120" y="251.1" class="st5" width="5.5" height="9.2"/>
		<polygon class="st6" points="247.8,181.3 247.8,260.3 253,260.3 283,260.3 288.2,260.3 288.2,181.3 		"/>
		<polygon class="st16" points="262.5,240.2 260.4,240.2 250.4,240.2 250.4,242.8 250.4,245.4 250.4,254.8 255.5,254.8 255.5,245.4 
			260.4,245.4 262.5,245.4 265.6,245.4 265.6,240.2 		"/>
		<polygon class="st16" points="282,240.2 280.4,240.2 270.4,240.2 270.4,245.4 280.4,245.4 280.4,254.8 285.6,254.8 285.6,245.4 
			285.6,241.7 285.6,240.2 		"/>
		<polygon class="st3" points="275.6,249.6 260.4,249.6 260.4,251.1 261,251.1 261,260.3 262.5,260.3 262.5,251.1 273.5,251.1 
			273.5,260.3 275,260.3 275,251.1 275.6,251.1 		"/>
		<rect x="262.5" y="251.1" class="st5" width="5.5" height="9.2"/>
		<rect x="268" y="251.1" class="st4" width="5.5" height="9.2"/>
		<rect x="250.4" y="183.9" class="st16" width="15.2" height="14.6"/>
		<rect x="270.4" y="183.9" class="st16" width="15.2" height="14.6"/>
		<rect x="250.4" y="202.7" class="st16" width="15.2" height="14.6"/>
		<rect x="270.4" y="202.7" class="st16" width="15.2" height="14.6"/>
		<rect x="250.4" y="221.4" class="st16" width="15.2" height="14.6"/>
		<rect x="270.4" y="221.4" class="st16" width="15.2" height="14.6"/>
		<path class="st16" d="M104.6,162.5c-0.8,0.7-0.9,2-0.2,2.8c0.3,0.4,0.8,0.6,1.3,0.7c12.5,1.4,37.8,3.2,44.7-2.8
			c8.8-7.8-16.3-0.4-18.2-2.2s4.9-5.7-0.5-5.6c-3.8,0.1-9.7,6.8-15.7,5.9c-4.9-0.7,1.6-4.3-2.9-4.3
			C109.1,157.1,107.3,160.2,104.6,162.5z"/>
		<path class="st3" d="M128.7,160.5c-0.6,0.5-0.7,1.4-0.2,2c0.2,0.3,0.6,0.4,0.9,0.5c9,1,27.1,2.3,32-2c6.3-5.6-11.7-0.3-13.1-1.5
			c-1.4-1.2,3.5-4.1-0.3-4c-2.7,0-6.9,4.9-11.3,4.2c-3.5-0.5,1.2-3.1-2.1-3.1C131.9,156.6,130.6,158.8,128.7,160.5z"/>
		<circle class="st16" cx="218.6" cy="67.3" r="32.3"/>
		<path class="st6" d="M213.2,77.1c-0.9,0.5-1.2,1.7-0.6,2.6c0.3,0.5,0.8,0.8,1.4,0.9c19.6,2.3,68.1,6.6,80.6-4.4
			c15.1-13.3-27.9-0.7-31.2-3.7c-3.3-3,8.4-9.7-0.8-9.6c-6.6,0.1-16.7,11.6-27,10.1c-8.4-1.2,2.8-7.4-5-7.4
			C222.4,65.6,219.5,73.1,213.2,77.1z"/>
		<path class="st3" d="M262.9,28.4c-0.7,0.6-0.8,1.7-0.2,2.5c0.3,0.3,0.7,0.6,1.1,0.6c12.1,1.3,37.5,3.3,44.3-2.7
			c8.6-7.6-15.9-0.4-17.8-2.1c-1.9-1.7,4.8-5.6-0.5-5.5c-3.7,0.1-9.5,6.6-15.4,5.8c-4.8-0.7,1.6-4.2-2.9-4.2
			C267.5,22.7,265.7,26,262.9,28.4z"/>
	</g>
	<g id="freepik--Shadow--inject-29" class="st18">
		<ellipse id="freepik--path--inject-29" class="st3" cx="196.3" cy="282.9" rx="148.9" ry="8.7"/>
	</g>
	<g id="freepik--Stairs--inject-29">
		<rect x="90.5" y="266.8" class="st9" width="25.1" height="12.6"/>
		<rect x="90.5" y="266.8" class="st19" width="25.1" height="12.6"/>
		<rect x="109.3" y="266.8" class="st20" width="6.3" height="12.6"/>
		<rect x="140.7" y="241.6" class="st9" width="25.1" height="37.7"/>
		<rect x="140.7" y="241.6" class="st21" width="25.1" height="37.7"/>
		<rect x="159.6" y="241.6" class="st20" width="6.3" height="37.7"/>
		<rect x="191" y="216.5" class="st9" width="25.1" height="62.8"/>
		<rect x="191" y="216.5" class="st19" width="25.1" height="62.8"/>
		<rect x="209.9" y="216.5" class="st20" width="6.3" height="62.8"/>
		<rect x="241.3" y="178.8" class="st9" width="25.1" height="100.5"/>
		<rect x="241.3" y="178.8" class="st22" width="25.1" height="100.5"/>
		<rect x="260.1" y="178.8" class="st20" width="6.3" height="100.5"/>
		<rect x="291.5" y="128.6" class="st9" width="25.1" height="150.8"/>
		<rect x="310.4" y="128.6" class="st20" width="6.3" height="150.8"/>
		<polygon class="st9" points="123.7,248.1 90.9,248.1 79.1,243.1 110.7,243.1 110.7,217.9 161,217.9 161,192.8 211.3,192.8 
			211.3,155.1 261.5,155.1 261.5,104.9 303.9,104.9 303.9,61.1 316.8,61.1 316.8,109.9 274.4,109.9 274.4,160.1 224.2,160.1 
			224.2,197.8 173.9,197.8 173.9,223 123.7,223 		"/>
		<g class="st23">
			<polygon class="st10" points="123.7,248.1 90.9,248.1 79.1,243.1 110.7,243.1 110.7,217.9 161,217.9 161,192.8 211.3,192.8 
				211.3,155.1 261.5,155.1 261.5,104.9 303.9,104.9 303.9,61.1 316.8,61.1 316.8,109.9 274.4,109.9 274.4,160.1 224.2,160.1 
				224.2,197.8 173.9,197.8 173.9,223 123.7,223 			"/>
		</g>
		<polygon class="st9" points="303.9,104.9 303.9,61.1 316.8,61.1 316.8,109.9 		"/>
		<polygon class="st9" points="261.5,155.1 261.5,104.9 274.4,109.9 274.4,160.1 		"/>
		<polygon class="st9" points="211.3,192.8 211.3,155.1 224.2,160.1 224.2,197.8 		"/>
		<polygon class="st9" points="161,217.9 161,192.8 173.9,197.8 173.9,223 		"/>
		<polygon class="st9" points="110.7,243.1 110.7,217.9 123.7,223 123.7,248.1 		"/>
		<polygon class="st9" points="295.3,64.7 310.4,46.5 325.5,75.6 		"/>
	</g>
	<g id="freepik--Character--inject-29">
		<path class="st7" d="M157.6,91.1c-1.2,2.4-2.1,4.8-2.8,7.3l0,0.2c-0.1,0.4-0.3,1.3-0.3,1.3c-0.1,0.4-0.2,0.8-0.2,1.2
			c0,0-0.2,0.9-0.2,1.3c0,0,0,0.1,0,0.1c-0.1,0.9-0.2,2.7-0.2,2.8c0,0.5,0,0.9,0,1.3c0,0,0.1,1,0.1,1.4l0,0v0.1c0,0,0-0.1,0-0.1
			c1.2,7.3,2.3,8.3,3.2,11c2.6,8,4.7,33.3,4.7,33.3c-15.2,4.1-33.5,20.7-33.5,20.7l3.3,7.6c0,0,39.4-18.6,42.2-22.4
			c3.3-4.5,1.4-28.3,2.5-37.7c0.4-3.5,0.8-6.5,1.3-9.2l4.9-7.6L157.6,91.1z"/>
		<path class="st20" d="M164.9,111.1l-2.9-3.1c0,0-5.5,4.5,13.8,21.3c0-3.3,0.1-6.3,0.4-8.5c0-0.3,0.1-0.6,0.1-0.8L164.9,111.1z"/>
		<polygon class="st24" points="128.8,174.5 120.8,178.6 123.3,182.6 130.7,179.3 		"/>
		<path class="st9" d="M123.6,183.7c0-0.1,0-0.1,0-0.2c0,0,0.1,0,0.1,0c0.1,0,2.1,1,2.4,1.9c0.1,0.2,0.1,0.3,0,0.5
			c-0.1,0.2-0.3,0.3-0.5,0.3c-0.4,0-0.9-0.5-1.3-1.1C124.1,184.7,123.8,184.2,123.6,183.7z M124,183.9c0.5,0.9,1.3,2,1.7,2
			c0.1,0,0.1,0,0.2-0.2c0-0.1,0-0.2,0-0.3c0-0.1-0.1-0.2-0.1-0.2C125.3,184.7,124.7,184.2,124,183.9L124,183.9z"/>
		<path class="st9" d="M123.6,183.6c0,0,0-0.1,0.1-0.1c0.7-0.4,1.4-0.6,2.2-0.5c0.2,0.1,0.5,0.2,0.6,0.5c0.2,0.3,0.1,0.5,0,0.6
			c-0.4,0.4-2.2,0-2.8-0.3C123.7,183.7,123.6,183.7,123.6,183.6C123.6,183.7,123.6,183.6,123.6,183.6z M126.2,183.5
			c-0.1-0.1-0.2-0.2-0.4-0.3c-0.6-0.1-1.2,0.1-1.8,0.4c0.7,0.3,2,0.5,2.2,0.3C126.3,183.9,126.4,183.8,126.2,183.5L126.2,183.5
			L126.2,183.5z"/>
		<path class="st7" d="M123.9,182.7l-3.4-4.9c-0.1-0.2-0.4-0.3-0.6-0.2l-4.6,1.9c-0.4,0.1-0.6,0.6-0.5,1c0,0,0,0,0,0
			c0,0.1,0,0.1,0.1,0.2c1.3,1.7,2.4,3.2,4,5.4c1.8,2.6,1,2.2,3.1,5.2c1.2,1.9,3.6,0.8,3.1-0.1c-2-3.8-1.2-5-0.9-7.2
			C124.3,183.6,124.2,183.1,123.9,182.7z"/>
		<polygon class="st20" points="127.5,175.2 124.5,176.7 126.7,181.1 129.2,180 		"/>
		<polygon class="st9" points="128.2,170.7 124.8,172.6 129.1,182.4 133,181.3 		"/>
		<path class="st7" d="M199.5,146.9c0,0-34.6-29.2-37.6-34.4s4.9-12.3,4.9-12.3l8.8,1.2c0,0,37,33.6,35.5,40.3L199.5,146.9z"/>
		<path class="st7" d="M211.2,141.7c-1,6.8-15.6,39.6-15.6,39.6s-3-0.2-8.5-3.6c0,0,5.8-25.9,11.6-36H211.2z"/>
		<polygon class="st24" points="189.5,179.2 186.9,187.8 191.5,188.8 194.3,181.2 		"/>
		<path class="st9" d="M192.5,189.3c0,0-0.1-0.1-0.1-0.1c0-0.1,0-0.1,0.1-0.1c0.1,0,2.1-0.8,3-0.4c0.2,0.1,0.3,0.2,0.4,0.4
			c0.1,0.2,0.1,0.4-0.1,0.6c-0.5,0.3-1.1,0.3-1.7,0.2C193.6,189.6,193,189.5,192.5,189.3z M192.9,189.2c1,0.3,2.3,0.5,2.6,0.2
			c0,0,0.1-0.1,0-0.3c0-0.1-0.1-0.2-0.2-0.2c-0.1,0-0.2-0.1-0.2-0.1C194.4,188.8,193.6,188.9,192.9,189.2L192.9,189.2z"/>
		<path class="st9" d="M192.4,189.3c0,0,0-0.1,0-0.1c0.2-0.8,0.6-1.4,1.2-2c0.2-0.1,0.5-0.2,0.8-0.1c0.3,0.1,0.4,0.3,0.4,0.4
			c0,0.6-1.5,1.6-2.2,1.8h-0.1C192.5,189.3,192.5,189.3,192.4,189.3z M194.2,187.3c-0.2,0-0.3,0-0.5,0.1c-0.5,0.4-0.8,0.9-1,1.5
			c0.7-0.3,1.7-1.1,1.8-1.4C194.5,187.5,194.5,187.4,194.2,187.3L194.2,187.3z"/>
		<path class="st7" d="M192.1,188.5l-5.9-1c-0.2,0-0.4,0.1-0.5,0.3l-1.8,4.6c-0.2,0.4,0,0.8,0.4,1c0,0,0,0,0.1,0l0.2,0.1
			c2.1,0.3,4,0.5,6.7,0.9c3.1,0.5,2.3,0.8,5.9,1.4c2.2,0.4,3-2.1,2.1-2.3c-4.2-1.2-4.4-2.6-5.8-4.4
			C193,188.8,192.5,188.5,192.1,188.5z"/>
		<polygon class="st20" points="189.1,180.6 188.1,183.8 192.8,185.3 193.7,182.8 		"/>
		<polygon class="st9" points="186.3,177 185.4,180.8 195.3,184.5 197.3,180.9 		"/>
		<path class="st24" d="M146.6,79.3l0.6-5.6l4.9,1l-1.7,5.6c0,0,1.6,2.6,1.5,4.9c-0.1,2.3-1.5,2-1.5,2s0.1,2.4-1.9,1.7
			s-4.8-1.8-4.3-3.8C144.8,83.1,145.6,81.1,146.6,79.3z"/>
		<path class="st9" d="M182,55.9c-1.7-6.3-20.8-0.3-20.8-0.3s-9.4,3-11.8,5.3c-2.5,2.3-3.8,15.6-3.8,15.6l6.7,1.5l4.2-11.5
			C175.1,63.3,183.6,62,182,55.9z"/>
		<path class="st10" d="M152.4,75.8c-0.2,0.2-0.6,0.2-0.8,0c-0.2-0.2-0.2-0.5-0.1-0.8c0.2-0.2,0.6-0.3,0.8-0.1
			C152.6,75.2,152.6,75.6,152.4,75.8C152.4,75.8,152.4,75.8,152.4,75.8z"/>
		<path class="st25" d="M177.1,59.7l0-5.9c0,0-4-0.7-10.2,10.9c2.8-0.5,5.1-1,7.1-1.5L177.1,59.7z"/>
		<path class="st26" d="M201.8,44.5l0.8,3.7c-0.9,0.2-1.8-0.1-2.5-0.7L201.8,44.5z"/>
		<path class="st7" d="M202.7,43c0,0.4-0.3,0.7-0.5,0.7s-0.4-0.4-0.4-0.8c0-0.4,0.3-0.7,0.5-0.7C202.5,42.3,202.7,42.6,202.7,43z"/>
		<path class="st24" d="M184.8,54.9c0,0,3.3,0.2,4.3-5.8c0,0,3.3-0.8,4.9,1.3c1.6,2.1-2.8,5.6-0.7,7.8
			C195.5,60.3,184.8,54.9,184.8,54.9z"/>
		<path class="st20" d="M191.8,52.5c0.4,0.9,0.8,1.7,1.4,2.5c0.3-0.8,0.7-1.5,1-2.2L191.8,52.5z"/>
		<path class="st24" d="M187.8,40.2c-0.7,5.1-1,7.3,1,10.4c3.4,3.4,9.6,4.4,11.8-0.5c2-4.4,2.7-12-1.9-15c-3.3-2.1-7.7-1.2-9.8,2.1
			C188.3,38.1,187.9,39.1,187.8,40.2z"/>
		<path class="st7" d="M201,40.9c0,0,0.1,0.1,0.2,0c0.5-0.1,1,0,1.4,0.3c0.1,0.1,0.2,0.1,0.3,0c0.1-0.1,0.1-0.2,0-0.3c0,0,0,0,0,0
			c-0.5-0.4-1.2-0.6-1.8-0.4C201,40.6,200.9,40.7,201,40.9L201,40.9C201,40.9,201,40.9,201,40.9z"/>
		<path class="st7" d="M197.9,45l1.8-0.1c-0.5-1.5-0.2-3.1,0.9-4.3c1.8-2.3,6.1-3.5,2.6-7.4c-2-2.3-4.9-3.5-7.9-3.3l2.9,2.1
			c0,0-6-4.4-9.6,0.4c0.9-0.3,1.8-0.3,2.7,0c0,0-16,5.4-2.5,18.3c0,0,0.5-1,2.7,0.7c1.5-1.1,2.8-2.5,3.8-4.1
			C196.5,44.7,197.4,42.4,197.9,45z"/>
		<path class="st24" d="M197.8,43.3c0.7,0.8,0.9,1.9,0.8,2.9c-0.2,1.4-1.6,1.5-2.6,0.7c-1-0.8-1.9-2.4-1.2-3.6
			c0.5-0.8,1.6-1.1,2.5-0.6C197.5,42.9,197.7,43.1,197.8,43.3z"/>
		<path class="st7" d="M204.9,34.5c0,0,0.5,2.8-3.9,4.5C201,39,207.1,39.6,204.9,34.5z"/>
		<path class="st9" d="M184.3,55.6l1.7-2.2c0,0,8.4,0.8,8.9,5.5L184.3,55.6z"/>
		<path class="st27" d="M184.3,55.6l1.7-2.2c0,0,8.4,0.8,8.9,5.5L184.3,55.6z"/>
		<path class="st9" d="M165.9,74.9c2.3-5.7,6-20.9,11.9-21.6c5.9-0.7,22.9,6.1,24.9,12.1c2,6-21.2,40.4-21.2,40.4l-24.7-13.6
			C156.8,92.1,164.1,79.4,165.9,74.9z"/>
		<path class="st25" d="M194.9,63.4c0,0-4.5,8.5,0.9,19.3c2-3.5,3.9-7.1,5.5-10.8l-1.9-4.5L194.9,63.4z"/>
		<path class="st9" d="M170.2,75.5c3.2,0.5,6.8-0.5,9.6-1.9c3.3-1.6,5.7-4,8.1-6.7c2.2-2.4,5-5.1,8.4-5.6c7.6-1,9.2,11.1,8.4,16.4
			c-0.9,6.3-4.5,12.1-8.4,17c-2.3,3-4.9,5.7-7.7,8.2c-0.9,0.8,0.5,2,1.4,1.2c7.3-6.4,14.3-15.4,16.3-25.1c1.2-5.8-0.3-14.1-5.5-17.9
			c-4.7-3.4-9.9-0.3-13.3,3.2c-4.6,4.6-9.9,10.3-17.1,9.2C169.3,73.4,169,75.3,170.2,75.5L170.2,75.5z"/>
		<g class="st14">
			<path d="M170.2,75.5c3.2,0.5,6.8-0.5,9.6-1.9c3.3-1.6,5.7-4,8.1-6.7c2.2-2.4,5-5.1,8.4-5.6c7.6-1,9.2,11.1,8.4,16.4
				c-0.9,6.3-4.5,12.1-8.4,17c-2.3,3-4.9,5.7-7.7,8.2c-0.9,0.8,0.5,2,1.4,1.2c7.3-6.4,14.3-15.4,16.3-25.1
				c1.2-5.8-0.3-14.1-5.5-17.9c-4.7-3.4-9.9-0.3-13.3,3.2c-4.6,4.6-9.9,10.3-17.1,9.2C169.3,73.4,169,75.3,170.2,75.5L170.2,75.5z"
				/>
		</g>
		<path class="st24" d="M225,85.7l-5.2,1.8l-0.7-3.9l5.3-1.7c0,0,1.1-2.7,3.2-3.6c2.1-0.8,3,0.7,3,0.7s2.1-1.1,2.3,1s0.1,5.6-1.9,6
			C229,86.5,226.8,85.7,225,85.7z"/>
		<path class="st9" d="M222.3,81.5l-10.9,1.7C204.2,66.4,201,59,195.6,61.9c-5.7,3.1,4.4,19.4,4.4,19.4s4.8,8.9,7.4,11
			c0.2,0.1,0.3,0.3,0.5,0.4c3.2,0.9,15.5-5,15.5-5L222.3,81.5z"/>
		<path class="st10" d="M222.3,87.5c-0.2,0.3-0.6,0.3-0.8,0.1c-0.3-0.2-0.3-0.6-0.1-0.8c0,0,0,0,0.1-0.1c0.2-0.2,0.6-0.3,0.8,0
			C222.5,86.9,222.5,87.2,222.3,87.5C222.3,87.5,222.3,87.5,222.3,87.5z"/>
		<path class="st9" d="M171.8,74.7l18.5,26.7c0.8,1.1,0.5,2.7-0.6,3.5c0,0,0,0,0,0l-13.7,9.5c-1.9,1.3-4.6,0.9-6-1.1l-16.4-23.7
			c-1.3-1.9-0.9-4.6,1.1-6l13.7-9.5C169.5,73.3,171,73.6,171.8,74.7C171.8,74.8,171.8,74.8,171.8,74.7L171.8,74.7z"/>
		<path class="st19" d="M171.8,74.7l18.5,26.7c0.8,1.1,0.5,2.7-0.6,3.5c0,0,0,0,0,0l-13.7,9.5c-1.9,1.3-4.6,0.9-6-1.1l-16.4-23.7
			c-1.3-1.9-0.9-4.6,1.1-6l13.7-9.5C169.5,73.3,171,73.6,171.8,74.7C171.8,74.8,171.8,74.8,171.8,74.7L171.8,74.7z"/>
		<path class="st25" d="M188.9,103.1l-19.2-27.7c-0.6-0.9-1.8-1.1-2.6-0.5c0,0,0,0,0,0l-0.6,0.4c-2.4,1.7-3,5-1.4,7.4l15.3,22
			c1.7,2.4,5,3,7.4,1.4l0.6-0.4C189.2,105.2,189.5,104,188.9,103.1z"/>
		<path class="st9" d="M190.6,101.9l-19.2-27.7c-0.6-0.9-1.8-1.1-2.6-0.5c0,0,0,0,0,0l-0.6,0.4c-2.4,1.7-3,5-1.4,7.4l15.3,22
			c1.7,2.4,5,3,7.4,1.4l0.6-0.4C191,104,191.2,102.8,190.6,101.9C190.6,101.9,190.6,101.9,190.6,101.9z"/>
		<path class="st9" d="M190.6,101.9l-19.2-27.7c-0.6-0.9-1.8-1.1-2.6-0.5c0,0,0,0,0,0l-0.6,0.4c-2.4,1.7-3,5-1.4,7.4l15.3,22
			c1.7,2.4,5,3,7.4,1.4l0.6-0.4C191,104,191.2,102.8,190.6,101.9C190.6,101.9,190.6,101.9,190.6,101.9z"/>
		<path class="st27" d="M190.6,101.9l-19.2-27.7c-0.6-0.9-1.8-1.1-2.6-0.5c0,0,0,0,0,0l-0.6,0.4c-2.4,1.7-3,5-1.4,7.4l15.3,22
			c1.7,2.4,5,3,7.4,1.4l0.6-0.4C191,104,191.2,102.8,190.6,101.9C190.6,101.9,190.6,101.9,190.6,101.9z"/>
		<path class="st9" d="M171.8,83.1l0.3,0.5c0.5,0.7,0.3,1.6-0.4,2.1l-3.7,2.6c-0.7,0.5-1.6,0.3-2.1-0.4l-0.3-0.5
			c-0.5-0.7-0.3-1.6,0.4-2.1l3.7-2.6C170.4,82.2,171.4,82.4,171.8,83.1z"/>
		<path class="st9" d="M182.2,98l0.3,0.5c0.5,0.7,0.3,1.6-0.4,2.1l-3.7,2.6c-0.7,0.5-1.6,0.3-2.1-0.4l-0.3-0.5
			c-0.5-0.7-0.3-1.6,0.4-2.1l3.7-2.6C180.8,97.2,181.7,97.3,182.2,98z"/>
		<path class="st8" d="M171.8,83.1l0.3,0.5c0.5,0.7,0.3,1.6-0.4,2.1l-3.7,2.6c-0.7,0.5-1.6,0.3-2.1-0.4l-0.3-0.5
			c-0.5-0.7-0.3-1.6,0.4-2.1l3.7-2.6C170.4,82.2,171.4,82.4,171.8,83.1z"/>
		<path class="st8" d="M182.2,98l0.3,0.5c0.5,0.7,0.3,1.6-0.4,2.1l-3.7,2.6c-0.7,0.5-1.6,0.3-2.1-0.4l-0.3-0.5
			c-0.5-0.7-0.3-1.6,0.4-2.1l3.7-2.6C180.8,97.2,181.7,97.3,182.2,98z"/>
		<path class="st20" d="M154.4,90.8c0,0,6.4,10.5,11.9,7.4l-4.6,3.2L154.4,90.8z"/>
		<path class="st9" d="M178.4,85.1c1.5-0.2,2.3-1.1,3.6-1.7c0.9-0.4-0.2-0.8,0.6-0.1c0.3,0.3,0.5,0.6,0.7,1c0.5,0.8,1,1.7,1.5,2.5
			c0.5,0.7,1.7,1.4,2,2.1c0.5,1.2-2,2.8-2.7,3.4c-0.9,0.7,0.1,2.2,1,1.4c1.2-1,3.7-2.7,3.6-4.6c-0.1-1.2-1.1-1.7-1.8-2.5
			c-1.3-1.5-1.9-4.1-3.7-5.2c-0.5-0.4-1.2-0.4-1.7,0c-0.7,0.4-1,1.1-1.8,1.5c-0.4,0.2-0.9,0.3-1.3,0.4
			C177.2,83.5,177.3,85.2,178.4,85.1L178.4,85.1z"/>
		<g class="st14">
			<path d="M178.4,85.1c1.5-0.2,2.3-1.1,3.6-1.7c0.9-0.4-0.2-0.8,0.6-0.1c0.3,0.3,0.5,0.6,0.7,1c0.5,0.8,1,1.7,1.5,2.5
				c0.5,0.7,1.7,1.4,2,2.1c0.5,1.2-2,2.8-2.7,3.4c-0.9,0.7,0.1,2.2,1,1.4c1.2-1,3.7-2.7,3.6-4.6c-0.1-1.2-1.1-1.7-1.8-2.5
				c-1.3-1.5-1.9-4.1-3.7-5.2c-0.5-0.4-1.2-0.4-1.7,0c-0.7,0.4-1,1.1-1.8,1.5c-0.4,0.2-0.9,0.3-1.3,0.4
				C177.2,83.5,177.3,85.2,178.4,85.1L178.4,85.1z"/>
		</g>
	</g>
</g>
</svg>
